
<svg width="23" height="22" viewBox="0 0 23 22" fill="none" xmlns="http://www.w3.org/2000/svg">
<path d="M1.73916 16.3312C1.48631 16.3333 1.23373 16.3364 0.980881 16.3375C0.694654 16.3385 0.408164 16.3391 0.121937 16.3364C0.0804089 16.3362 0.0233735 16.3643 0.000506831 16.2975C0.0425604 16.303 0.0848768 16.3133 0.12693 16.3133C0.632625 16.3143 1.13832 16.3141 1.64428 16.3135C1.67582 16.3135 1.70736 16.3088 1.74862 16.3056C1.74862 16.2488 1.74862 16.2019 1.74862 16.1548C1.74862 14.5013 1.74862 12.8477 1.74862 11.1942C1.74862 11.1466 1.74442 11.0992 1.74231 11.0515C1.79436 11.0484 1.8464 11.0428 1.8987 11.0428C2.38547 11.0421 2.87224 11.0428 3.35901 11.0421C3.40921 11.0421 3.45941 11.0381 3.51566 11.036C3.51566 10.9662 3.51566 10.9141 3.51566 10.8617C3.51566 9.80053 3.51566 8.73934 3.51566 7.67814C3.51566 7.62576 3.51908 7.57337 3.52118 7.52098L3.51776 7.52414H5.27245V7.37355C5.27245 6.96761 5.27192 6.56193 5.27271 6.15599C5.27298 6.02725 5.27744 5.89878 5.27981 5.77005C5.56551 5.77005 5.85121 5.77005 6.13691 5.77005C6.42551 5.77005 6.71436 5.77005 7.01925 5.77005V3.99464H8.78866C8.80784 3.9949 8.82677 3.99569 8.84595 3.99569C11.1221 3.99569 13.3983 3.99569 15.6744 3.99569C15.7172 3.99569 15.7604 3.99411 15.8032 3.99332C16.3872 3.99332 16.9712 3.99385 17.5553 3.99411C17.5571 4.04176 17.5608 4.08941 17.5608 4.13679C17.5613 4.62882 17.5608 5.12085 17.5613 5.61288C17.5613 5.65895 17.5658 5.70502 17.5687 5.76347H17.7332C18.215 5.76347 18.6965 5.76347 19.1783 5.76373C19.2303 5.76373 19.2823 5.769 19.3346 5.77189C19.3325 5.96196 19.3294 6.15204 19.3281 6.34237C19.3254 6.737 19.3239 7.13188 19.322 7.52677C18.7338 7.52572 18.1456 7.52466 17.5574 7.52387H15.8119V9.27454H17.5592L17.5558 9.27217C17.5576 9.29113 17.5613 9.31008 17.5613 9.32904C17.5616 9.86398 17.5618 10.3992 17.5613 10.9341C17.5613 10.9662 17.5558 10.9984 17.5518 11.0428C17.499 11.0428 17.4522 11.0428 17.4057 11.0428C16.9239 11.0428 16.4424 11.0426 15.9606 11.0434C15.9086 11.0434 15.8566 11.0492 15.8045 11.0523C15.7378 11.0515 15.671 11.0497 15.6042 11.0497C14.5687 11.0497 13.5331 11.0497 12.4978 11.0497C12.4549 11.0497 12.4118 11.05 12.369 11.0484C12.3177 11.0465 12.2904 11.0192 12.2894 10.9673C12.2886 10.9291 12.2886 10.8909 12.2886 10.8525C12.2883 10.3268 12.288 9.80106 12.2878 9.27533C12.4352 9.27533 12.5829 9.27481 12.7304 9.27481C12.8781 9.27481 13.0256 9.27481 13.1733 9.27481C13.321 9.27481 13.4684 9.27586 13.6161 9.27454C13.7615 9.27323 13.9074 9.28033 14.0506 9.26954V7.52414H10.5507C10.542 7.54967 10.5365 7.55836 10.5365 7.56705C10.5373 8.13569 10.5383 8.70432 10.5397 9.27322C9.95985 9.27849 9.37951 9.26954 8.78971 9.27823V9.45593C8.78971 9.92453 8.78971 10.3931 8.78971 10.8617C8.78971 10.8952 8.78918 10.9286 8.78918 10.962C8.78918 11.0218 8.75764 11.0486 8.70008 11.0492C8.6667 11.0492 8.63332 11.0497 8.59994 11.0497C8.12736 11.0497 7.65479 11.0497 7.18221 11.05C7.13175 11.05 7.08128 11.055 7.02661 11.0576V14.5542H8.79155V16.3299H10.5289C10.5323 16.3936 10.5368 16.4399 10.5368 16.4865C10.5373 16.7924 10.5368 17.0986 10.537 17.4045C10.5378 18.2124 10.5389 19.0206 10.5397 19.8286C10.4921 19.8299 10.4445 19.8328 10.3972 19.8328C9.57296 19.833 8.74871 19.8333 7.92419 19.8328C7.03791 19.8325 6.1519 19.8315 5.26562 19.8309L5.26851 19.8341C5.26851 19.2499 5.26851 18.6658 5.26851 18.0768C5.22803 18.0747 5.20017 18.0718 5.17231 18.0718C4.64901 18.0716 4.12597 18.0716 3.60266 18.0718C3.57454 18.0718 3.54641 18.0782 3.51855 18.0816L3.52197 18.0842C3.52013 18.0368 3.51645 17.9892 3.51645 17.9418C3.51592 17.455 3.51645 16.9683 3.51645 16.4818C3.51645 16.4315 3.51645 16.3809 3.51645 16.3312H1.73916Z" fill="#FFA336"/>
<path d="M5.26483 19.8309C6.15111 19.8317 7.03713 19.8325 7.9234 19.8328C8.74765 19.833 9.5719 19.8328 10.3964 19.8328C10.444 19.8328 10.4916 19.8301 10.5389 19.8286C10.5912 19.8299 10.6435 19.8328 10.6958 19.8328C12.983 19.8333 15.2704 19.8336 17.5576 19.8338L17.5529 19.8291C17.5555 19.9149 17.5602 20.0005 17.5602 20.0863C17.561 20.5357 17.5605 20.9848 17.5605 21.4342V21.585H5.27166C5.27166 21.5411 5.27166 21.4958 5.27166 21.4505C5.27166 20.9629 5.27166 20.4754 5.2714 19.9881C5.2714 19.9357 5.26693 19.8833 5.26457 19.8312L5.26483 19.8309Z" fill="#030303"/>
<path d="M21.0783 9.27533H22.8188V16.3185H21.0762V18.0653H19.3302C19.3291 18.2195 19.3278 18.3654 19.3273 18.511C19.3268 18.6542 19.3273 18.7976 19.3273 18.9409V19.8288H17.5532L17.5579 19.8336V18.0689H19.3283V16.322H21.0746V16.1398C21.0746 13.9026 21.0746 11.6655 21.0749 9.42802C21.0749 9.37563 21.0793 9.32351 21.0817 9.27112L21.0783 9.27507V9.27533Z" fill="#030303"/>
<path d="M15.8024 3.99306C15.7596 3.99385 15.7165 3.99543 15.6736 3.99543C13.3975 3.99543 11.1213 3.99543 8.84517 3.99543C8.82598 3.99543 8.80706 3.99464 8.78787 3.99437C8.78708 3.53341 8.78577 3.07271 8.78577 2.61174C8.78577 2.48854 8.79023 2.36507 8.7926 2.24186L8.78918 2.24581C11.1297 2.24581 13.4703 2.24581 15.8108 2.24581L15.8066 2.24186C15.805 2.82551 15.8037 3.40915 15.8021 3.99279L15.8024 3.99306Z" fill="#030303"/>
<path d="M5.27955 5.76979C5.27718 5.89852 5.27271 6.02699 5.27245 6.15572C5.2714 6.56167 5.27219 6.96735 5.27219 7.37329V7.52387H3.5175C3.51671 6.97972 3.5154 6.4353 3.5154 5.89115C3.51514 4.73097 3.5154 3.57079 3.5154 2.41087C3.5154 2.35954 3.5154 2.3082 3.5154 2.24607H5.26851L5.26509 2.24213C5.26746 2.29425 5.27192 2.34638 5.27192 2.3985C5.27245 3.47023 5.27192 4.54169 5.27245 5.61341C5.27245 5.66553 5.27718 5.71766 5.27955 5.76979Z" fill="#030303"/>
<path d="M1.74205 11.0515C1.74442 11.0992 1.74836 11.1466 1.74836 11.1942C1.74862 12.8477 1.74836 14.5013 1.74836 16.1548C1.74836 16.2017 1.74836 16.2485 1.74836 16.3056C1.70709 16.3088 1.67555 16.3135 1.64401 16.3135C1.13832 16.3141 0.632625 16.3143 0.126668 16.3133C0.0846141 16.3133 0.0422977 16.303 0.000244141 16.2975C0.000244141 14.5516 0.000507088 12.8054 0.000769923 11.0594C0.138758 11.0557 0.276746 11.0486 0.414472 11.0489C0.857875 11.0492 1.30128 11.0523 1.74468 11.0542L1.74179 11.0518L1.74205 11.0515Z" fill="#030303"/>
<path d="M19.3339 5.77163C19.2818 5.76873 19.2298 5.76347 19.1775 5.76347C18.6957 5.76294 18.2142 5.7632 17.7324 5.7632H17.5679C17.565 5.70476 17.5605 5.65869 17.5605 5.61262C17.56 5.12059 17.5605 4.62856 17.56 4.13653C17.56 4.08888 17.5563 4.04123 17.5545 3.99385C17.5555 3.40994 17.5563 2.82603 17.5574 2.24213L17.5532 2.24607H19.327V2.4064C19.327 3.46654 19.327 4.52668 19.3273 5.58682C19.3273 5.63921 19.3312 5.69133 19.3333 5.74372C19.3325 5.75399 19.3315 5.76426 19.3307 5.77479L19.3336 5.77163H19.3339Z" fill="#030303"/>
<path d="M3.52092 7.52072C3.51908 7.5731 3.5154 7.62549 3.5154 7.67788C3.51514 8.73907 3.5154 9.80027 3.5154 10.8615C3.5154 10.9138 3.5154 10.9662 3.5154 11.0357C3.45942 11.0381 3.40921 11.0418 3.35875 11.0418C2.87198 11.0423 2.38521 11.0418 1.89844 11.0426C1.8464 11.0426 1.79436 11.0484 1.74205 11.0513L1.74494 11.0536C1.74415 11.0434 1.7431 11.0331 1.74231 11.0226C1.74442 10.9702 1.74836 10.9181 1.74836 10.8657C1.74862 9.81054 1.74862 8.75566 1.74862 7.70052V7.52677C2.34368 7.52466 2.93243 7.52229 3.52092 7.52019V7.52072Z" fill="#030303"/>
<path d="M5.26825 2.24581C5.26956 1.71587 5.27087 1.18593 5.27192 0.655995C5.27192 0.604397 5.27192 0.552535 5.27192 0.492249H8.78314C8.78524 1.07589 8.78734 1.66085 8.78945 2.24555L8.79286 2.2416C8.74056 2.24265 8.68825 2.24502 8.63595 2.24502C7.75493 2.24502 6.8739 2.24555 5.99314 2.24502C5.75028 2.24502 5.50743 2.24292 5.26483 2.2416L5.26825 2.24555V2.24581Z" fill="#030303"/>
<path d="M19.3212 7.52624C19.3233 7.13136 19.3249 6.73673 19.3273 6.34185C19.3286 6.15177 19.3315 5.9617 19.3339 5.77137L19.331 5.77452C19.3499 5.77268 19.3688 5.769 19.3877 5.769C19.9171 5.76873 20.4464 5.76847 20.9758 5.769C21.0089 5.769 21.0418 5.77584 21.0749 5.77953C21.0749 6.91127 21.0749 8.04302 21.0749 9.17477C21.0749 9.2082 21.0772 9.24137 21.0786 9.27481L21.082 9.27086C20.4982 9.27086 19.9147 9.27086 19.331 9.27086L19.3344 9.27481C19.332 9.12212 19.3286 8.96916 19.3275 8.81647C19.3249 8.38631 19.3233 7.95614 19.3215 7.52598L19.3212 7.52624Z" fill="#030303"/>
<path d="M1.73916 16.3312H3.5154C3.5154 16.3809 3.5154 16.4315 3.5154 16.4818C3.5154 16.9685 3.5154 17.4553 3.5154 17.9418C3.5154 17.9892 3.51908 18.0368 3.52092 18.0842C3.46914 18.08 3.41736 18.0718 3.36558 18.0718C2.87881 18.0708 2.39231 18.0713 1.90553 18.0713H1.75572C1.75283 18.0181 1.74889 17.9768 1.74889 17.9355C1.74836 17.4479 1.74889 16.9606 1.7481 16.4731C1.7481 16.4257 1.74205 16.3786 1.7389 16.3312H1.73916Z" fill="#030303"/>
<path d="M15.8113 2.24607C15.809 2.13656 15.8045 2.02704 15.8042 1.91779C15.8035 1.44603 15.804 0.974274 15.804 0.493038H17.5526C17.5553 0.513046 17.5605 0.535423 17.5605 0.558063C17.561 1.09722 17.561 1.63637 17.5605 2.17552C17.5605 2.19921 17.5558 2.22264 17.5534 2.24634L17.5576 2.24239H15.8071L15.8113 2.24634V2.24607Z" fill="#030303"/>
<path d="M3.5175 18.0818C3.54562 18.0784 3.57375 18.0721 3.60161 18.0721C4.12491 18.0716 4.64795 18.0716 5.17126 18.0721C5.19912 18.0721 5.22698 18.075 5.26746 18.0771C5.26746 18.666 5.26746 19.2502 5.26746 19.8344H3.5175V18.0818Z" fill="#030303"/>
<path d="M21.0749 5.78005C21.0418 5.77637 21.0089 5.76952 20.9758 5.76952C20.4464 5.76899 19.9171 5.76899 19.3877 5.76952C19.3688 5.76952 19.3499 5.77321 19.331 5.77505C19.3318 5.76478 19.3328 5.75452 19.3336 5.74399C19.8824 5.74293 20.4312 5.74135 20.98 5.74267C21.0115 5.74267 21.0431 5.76715 21.0749 5.78031V5.78005Z" fill="#FFA336"/>
<path d="M1.74231 11.0228C1.7431 11.0331 1.74415 11.0434 1.74494 11.0539C1.30154 11.0521 0.858138 11.0489 0.414735 11.0486C0.276747 11.0486 0.138758 11.0555 0.00103261 11.0592C0.0325728 11.046 0.0641132 11.0215 0.0956534 11.0215C0.644453 11.0202 1.19325 11.0218 1.74231 11.0228Z" fill="#FFA336"/>
<path d="M19.3307 9.27138C19.9145 9.27138 20.498 9.27138 21.0817 9.27138C21.0793 9.32377 21.0749 9.3759 21.0749 9.42828C21.0746 11.6655 21.0746 13.9026 21.0746 16.1401V16.3222H19.3283V18.0692H17.5579V19.8338C15.2707 19.8336 12.9832 19.8333 10.6961 19.8328C10.6437 19.8328 10.5914 19.8301 10.5391 19.8286C10.5381 19.0206 10.5373 18.2124 10.5365 17.4045C10.5362 17.0986 10.5365 16.7924 10.5362 16.4865C10.5362 16.4399 10.5318 16.3933 10.5284 16.3299H8.79102V14.5542H7.02609V11.0576C7.08049 11.0547 7.13096 11.05 7.18168 11.05C7.65426 11.0494 8.12684 11.0497 8.59942 11.0497C8.6328 11.0497 8.66618 11.0494 8.69956 11.0492C8.75712 11.0486 8.78866 11.0218 8.78866 10.962C8.78866 10.9286 8.78918 10.8952 8.78918 10.8617C8.78918 10.3931 8.78918 9.92453 8.78918 9.45593V9.27823C9.37898 9.26928 9.95906 9.27823 10.5391 9.27322C11.1218 9.27401 11.7043 9.27454 12.287 9.27533C12.2873 9.80106 12.2875 10.3268 12.2878 10.8525C12.2878 10.8907 12.2878 10.9291 12.2886 10.9673C12.2896 11.0192 12.317 11.0465 12.3682 11.0484C12.411 11.05 12.4542 11.0497 12.497 11.0497C13.5326 11.0497 14.5681 11.0497 15.6034 11.0497C15.6702 11.0497 15.737 11.0513 15.8037 11.0523C15.8037 11.487 15.8045 11.9216 15.8037 12.3562C15.8037 12.4945 15.7993 12.6327 15.7966 12.7709C14.683 12.7709 13.5694 12.7709 12.4557 12.7709C12.4176 12.7709 12.379 12.7675 12.3419 12.7735C12.3233 12.7767 12.3072 12.7972 12.2901 12.8101V14.5455H17.566V12.793H18.1579C18.3535 12.793 18.549 12.7935 18.7446 12.793C18.9375 12.7922 19.1307 12.7969 19.3278 12.7896V12.6113C19.3278 11.7418 19.3278 10.8725 19.3278 10.003C19.3278 9.75946 19.3299 9.51595 19.3312 9.27217L19.3307 9.27138Z" fill="white"/>
<path d="M15.7966 12.7703C15.799 12.6321 15.8035 12.4939 15.8037 12.3557C15.8045 11.9211 15.8037 11.4864 15.8037 11.0518C15.8558 11.0486 15.9078 11.0428 15.9598 11.0428C16.4416 11.0421 16.9231 11.0423 17.4049 11.0423C17.4517 11.0423 17.4982 11.0423 17.5511 11.0423C17.555 10.9976 17.5605 10.9654 17.5605 10.9336C17.561 10.3987 17.5608 9.86345 17.5605 9.32851C17.5605 9.30956 17.5568 9.2906 17.555 9.27165C18.1479 9.2727 18.7412 9.27401 19.3341 9.27507L19.3307 9.27112C19.3294 9.51463 19.3273 9.75815 19.3273 10.0019C19.3268 10.8715 19.3273 11.7407 19.3273 12.6103V12.7885C19.1302 12.7959 18.937 12.7911 18.7441 12.7919C18.5485 12.7927 18.353 12.7919 18.1574 12.7919H17.5655V14.5444H12.2896C12.2896 13.9626 12.2896 13.3858 12.2896 12.809C12.3464 12.8054 12.4034 12.7985 12.4602 12.7985C13.5244 12.798 14.5886 12.7985 15.6526 12.7969C15.7004 12.7969 15.7483 12.7793 15.7961 12.7701L15.7966 12.7703Z" fill="#030303"/>
<path d="M5.26483 2.24186C5.50769 2.24292 5.75055 2.24502 5.99314 2.24528C6.87417 2.24581 7.75519 2.24528 8.63595 2.24528C8.68825 2.24528 8.74056 2.24318 8.79286 2.24186C8.7905 2.36507 8.78603 2.48854 8.78603 2.61174C8.78603 3.07271 8.78734 3.53341 8.78813 3.99437C8.20385 3.99437 7.61957 3.99437 7.01873 3.99437V5.76979C6.71384 5.76979 6.42525 5.76979 6.13639 5.76979C5.85069 5.76979 5.56499 5.76979 5.27928 5.76979C5.27692 5.71766 5.27219 5.66553 5.27219 5.61341C5.27166 4.54169 5.27219 3.47023 5.27166 2.3985C5.27166 2.34638 5.26719 2.29425 5.26483 2.24213V2.24186Z" fill="white"/>
<path d="M12.2857 7.52335H14.0493V9.26875C13.9058 9.27954 13.7599 9.27244 13.6148 9.27375C13.4671 9.27507 13.3197 9.27402 13.172 9.27402C13.0242 9.27402 12.8768 9.27402 12.7291 9.27402C12.5816 9.27402 12.4339 9.27428 12.2865 9.27454C12.2865 8.6909 12.2862 8.10699 12.2859 7.52335H12.2857Z" fill="white"/>
<path d="M19.3341 9.27507C18.7412 9.27401 18.1479 9.2727 17.555 9.27165L17.5584 9.27402C17.5579 8.69037 17.5571 8.10699 17.5566 7.52335C18.1448 7.5244 18.733 7.52545 19.3212 7.52624C19.3231 7.95641 19.3247 8.38657 19.3273 8.81674C19.3283 8.96943 19.3318 9.12238 19.3341 9.27507Z" fill="white"/>
<path d="M15.8069 2.24213H17.5574C17.5563 2.82603 17.5555 3.40994 17.5545 3.99385C16.9704 3.99385 16.3864 3.99332 15.8024 3.99306C15.804 3.40941 15.8053 2.82577 15.8069 2.24213Z" fill="white"/>
<path d="M12.2857 7.52335C12.2857 8.10699 12.2859 8.6909 12.2862 9.27454C11.7035 9.27375 11.1211 9.27322 10.5383 9.27244C10.5373 8.7038 10.536 8.1349 10.5352 7.56626C10.5352 7.55757 10.5407 7.54888 10.5494 7.52335H12.2857Z" fill="#030303"/>
<path d="M17.5566 7.52335C17.5571 8.10699 17.5579 8.69037 17.5584 9.27402H15.8111V7.52335H17.5566Z" fill="#030303"/>
<path d="M15.7966 12.7703C15.7488 12.7798 15.701 12.7972 15.6531 12.7972C14.5889 12.7988 13.5247 12.7983 12.4607 12.7988C12.404 12.7988 12.3469 12.8056 12.2901 12.8093C12.3072 12.7967 12.3233 12.7759 12.3419 12.7727C12.379 12.7667 12.4179 12.7701 12.4557 12.7701C13.5694 12.7701 14.683 12.7701 15.7966 12.7701V12.7703Z" fill="#FFA336"/>
</svg>
