<svg width="79" height="17" viewBox="0 0 79 17" fill="none" xmlns="http://www.w3.org/2000/svg">
<path d="M78.9974 10.1722V14.0306C78.9565 14.1224 78.9644 14.2182 78.9816 14.3139C78.9776 14.5298 78.9684 14.7457 78.9723 14.9615C78.9776 15.2759 78.9131 15.5767 78.8394 15.8776C78.8328 15.9032 78.8222 15.9288 78.8078 15.9504C78.6959 16.1312 78.5576 16.2836 78.3535 16.3592C78.3338 16.3659 78.3193 16.3943 78.3061 16.4145C78.2456 16.5076 78.1995 16.6142 78.1231 16.6911C78.0415 16.7747 77.9388 16.8462 77.8335 16.8934C77.7308 16.9393 77.6136 16.9487 77.5017 16.9744C77.4753 16.973 77.449 16.9703 77.4227 16.9703C74.1811 16.9703 70.9409 16.9703 67.6994 16.9703C67.652 16.9703 67.6033 16.9771 67.5559 16.9811C67.4927 16.9798 67.4295 16.9784 67.3663 16.9771C67.3176 16.9744 67.2702 16.9703 67.2215 16.9703C64.1906 16.9703 61.1584 16.9703 58.1276 16.9703C58.0749 16.9703 58.0236 16.9771 57.9709 16.9811C57.7365 16.9029 57.5022 16.8894 57.2665 16.9757C57.2626 16.9771 57.2573 16.9757 57.2533 16.9757C57.2007 16.973 57.148 16.969 57.0967 16.969C54.2383 16.969 51.3786 16.969 48.5202 16.969C48.4675 16.969 48.4148 16.973 48.3635 16.9757C48.1331 16.8961 47.9027 16.9015 47.6723 16.9784C47.6157 16.9757 47.559 16.969 47.5024 16.969C44.4716 16.969 41.4394 16.969 38.4085 16.969C38.3559 16.969 38.3032 16.973 38.2505 16.9757C38.1913 16.9636 38.1307 16.9487 38.0715 16.9393C37.8345 16.8988 37.6541 16.768 37.5237 16.5656C37.4816 16.4995 37.4461 16.4293 37.3987 16.3443C37.3631 16.3686 37.317 16.3848 37.2933 16.4185C37.2341 16.4995 37.1972 16.6034 37.1274 16.6722C37.0379 16.7599 36.9326 16.8395 36.8207 16.8921C36.7153 16.9406 36.5929 16.9501 36.4783 16.9757C36.4178 16.973 36.3559 16.9703 36.2953 16.9703C34.5258 16.9703 32.7563 16.9703 30.988 16.9703C30.9275 16.9703 30.8656 16.973 30.805 16.9744C30.6944 16.9487 30.5838 16.9245 30.4732 16.8975C30.4443 16.8907 30.4153 16.8759 30.3903 16.861C30.2152 16.7504 30.0769 16.6074 29.994 16.4104C29.9834 16.3862 29.9439 16.3632 29.9163 16.3605C29.8979 16.3592 29.8715 16.3916 29.8557 16.4145C29.7952 16.5062 29.7504 16.6155 29.674 16.6897C29.5845 16.7774 29.4739 16.8503 29.362 16.9015C29.2606 16.9474 29.1421 16.9568 29.0315 16.9825C28.971 16.9784 28.9091 16.9717 28.8485 16.9717C22.9777 16.9717 17.1082 16.9717 11.2374 16.9717C11.1939 16.9717 11.1505 16.9744 11.1057 16.9757C10.9701 16.9406 10.8253 16.9272 10.7028 16.8651C10.5066 16.7653 10.3671 16.5966 10.2855 16.3943C10.1169 16.3268 9.98132 16.231 9.87072 16.0894C9.71931 15.8951 9.67849 15.6644 9.66796 15.4337C9.64426 14.9183 9.64558 14.4003 9.63504 13.8849C9.63504 13.8418 9.63109 13.7972 9.62846 13.7473H8.15121C8.15121 13.7972 8.15121 13.8458 8.15121 13.8944C8.15121 14.3881 8.16043 14.8833 8.14594 15.377C8.14068 15.5619 8.10776 15.7575 8.03535 15.9248C7.94582 16.1298 7.78519 16.2904 7.56136 16.3605C7.5403 16.3673 7.51923 16.3889 7.50607 16.4091C7.45077 16.4941 7.41127 16.5953 7.34149 16.6654C7.25327 16.7545 7.14926 16.8368 7.03735 16.8894C6.93334 16.9393 6.80957 16.9474 6.69371 16.9744C6.65026 16.9717 6.60681 16.969 6.56205 16.969C4.92549 16.969 3.29024 16.969 1.65368 16.969C1.61023 16.969 1.56678 16.973 1.52202 16.9757C1.40747 16.9487 1.29161 16.9231 1.17706 16.8948C1.15204 16.888 1.12835 16.8759 1.10596 16.8624C0.932169 16.7504 0.788657 16.6115 0.708343 16.4118C0.70176 16.3943 0.682011 16.3781 0.666211 16.3673C0.585897 16.3133 0.489784 16.2755 0.426586 16.2067C0.335739 16.1069 0.239625 15.9963 0.196177 15.8722C0.11323 15.632 0.0829472 15.3757 0.0789974 15.118C0.0645145 14.2195 0.0447652 13.3224 0.0276491 12.4239C0.0263325 12.3483 0.0276491 12.2714 0.0276491 12.1945C0.0355488 12.1432 0.0500317 12.0906 0.0500317 12.0394C0.0434485 11.3797 0.0276491 10.7199 0.0276491 10.0616C0.0276491 8.97961 0.00394987 7.89898 0.0434485 6.817C0.0645145 6.25712 0.0500317 5.69455 0.0500317 5.13332C0.0500317 5.09555 0.0355488 5.05642 0.0263325 5.01865C0.0250158 4.99571 0.021066 4.97413 0.0223826 4.95119C0.0421319 3.90834 0.0631979 2.86549 0.0816306 1.82398C0.0855805 1.59329 0.140879 1.37068 0.193544 1.14808C0.19881 1.1265 0.20671 1.10491 0.218559 1.08602C0.337055 0.891755 0.485834 0.73391 0.699127 0.654313C0.734675 0.50996 0.824206 0.402032 0.917686 0.303547C0.98615 0.230696 1.07436 0.163241 1.16653 0.132212C1.33637 0.0768987 1.50885 0.0256329 1.69318 0.026982C2.01838 0.0296802 2.34227 0.0242838 2.66748 0.0229347C3.18096 0.0215856 3.69313 0.0215856 4.20661 0.0202365C4.25927 0.0242838 4.31062 0.0310293 4.36329 0.0310293C5.80762 0.0310293 7.25327 0.0310293 8.69761 0.0310293C8.75027 0.0310293 8.80162 0.0242838 8.85429 0.0215856C9.45072 0.0215856 10.0471 0.0215856 10.6436 0.0215856C10.7792 0.0215856 10.9148 0.0215856 11.0465 0.0634077C11.0715 0.0715023 11.0978 0.0742005 11.1241 0.0728514C11.3124 0.0634077 11.4994 0.0458694 11.6877 0.0418221C12.2657 0.0323784 12.845 0.026982 13.423 0.0202365C13.4625 0.0242838 13.5006 0.0310293 13.5401 0.0310293C14.1168 0.0310293 14.6922 0.0310293 15.2689 0.0310293C15.3084 0.0310293 15.3466 0.0242838 15.3861 0.0202365C15.7942 0.026982 16.2024 0.0242838 16.6092 0.0445203C16.7909 0.053964 16.9713 0.106579 17.1516 0.140306C17.1727 0.144354 17.1938 0.155146 17.2122 0.165939C17.4031 0.286009 17.5558 0.439806 17.6348 0.651615C17.9008 0.755496 18.072 0.948417 18.1826 1.20475C18.226 1.1926 18.2629 1.18181 18.2932 1.17372C18.4064 0.929529 18.571 0.752797 18.8106 0.650266C18.887 0.423617 19.0384 0.250932 19.2438 0.153797C19.4162 0.0728514 19.6098 0.0337275 19.806 0.0337275C22.5524 0.0337275 25.3002 0.0337275 28.0467 0.0350766C28.2179 0.0350766 28.3877 0.0485676 28.5589 0.053964C28.5891 0.053964 28.6194 0.0485676 28.6497 0.0458694C28.7195 0.0377748 28.788 0.0229347 28.8577 0.0229347C31.8939 0.0202365 34.9313 0.0175383 37.9674 0.0175383C41.101 0.0175383 44.2333 0.0202365 47.3668 0.0188874C47.5617 0.0188874 47.7513 0.0337275 47.9382 0.0903897C48.012 0.113324 48.0831 0.111975 48.1581 0.0903897C48.328 0.0391239 48.5004 0.0256329 48.6769 0.0256329C51.4457 0.0283311 54.2146 0.0283311 56.9834 0.0256329C57.1599 0.0256329 57.3337 0.0377748 57.5022 0.0917388C57.593 0.12007 57.6812 0.12007 57.7721 0.0917388C57.9195 0.0458694 58.071 0.0310293 58.2263 0.0310293C61.1887 0.0310293 64.1498 0.026982 67.1122 0.0242838C67.2531 0.0242838 67.3927 0.0188874 67.5296 0.0647568C67.5572 0.0742005 67.5901 0.0742005 67.6204 0.0728514C67.9799 0.0620586 68.3393 0.0431712 68.6987 0.0377748C69.365 0.0283311 70.0325 0.0242838 70.6987 0.0188874C70.7514 0.0229347 70.8027 0.0296802 70.8554 0.0296802C72.4024 0.0296802 73.9481 0.0296802 75.4951 0.0296802C75.5425 0.0296802 75.5913 0.0229347 75.6387 0.0188874C76.0205 0.0242838 76.4023 0.0202365 76.7828 0.040473C76.9605 0.0499167 77.1357 0.102532 77.3121 0.137608C77.3371 0.143005 77.3608 0.157845 77.3819 0.171336C77.5662 0.286009 77.7071 0.441155 77.794 0.647568C77.9269 0.669153 78.027 0.755496 78.1179 0.843187C78.2127 0.933577 78.2956 1.04016 78.3312 1.17641C78.3943 1.41655 78.4273 1.65804 78.4273 1.90763C78.4299 3.8139 78.4378 5.71883 78.4404 7.62511C78.4404 7.73574 78.4654 7.80859 78.5602 7.8666C78.688 7.94485 78.7788 8.06896 78.8222 8.20927C78.9026 8.46965 78.9579 8.73947 78.9684 9.01468C78.9789 9.28855 78.9776 9.56242 78.9802 9.83628C78.9671 9.94826 78.9565 10.0602 79 10.1695L78.9974 10.1722ZM57.9933 16.0421H67.3374C67.3439 15.9841 67.3518 15.9315 67.3571 15.8789C67.365 15.8074 67.3676 15.7345 67.3808 15.6644C67.4019 15.547 67.4532 15.5268 67.5796 15.5888V16.0435H77.4661C77.4898 15.8614 77.5122 15.686 77.5359 15.4998H78.0046C78.0191 15.3797 78.0428 15.2691 78.0454 15.1585C78.0652 14.4934 78.0889 13.8283 78.0955 13.1632C78.1086 11.7911 78.1007 10.4204 78.0441 9.04976C78.0375 8.90406 78.0125 8.75835 77.9941 8.59781H77.5175C77.5175 8.54115 77.5175 8.50068 77.5175 8.46155C77.5122 6.85612 77.5083 5.25069 77.503 3.64527C77.5004 2.99365 77.4977 2.34069 77.4938 1.68907C77.4938 1.63646 77.4872 1.58519 77.4819 1.51774H76.9974C76.975 1.33561 76.9553 1.16832 76.9342 0.994286C76.7999 0.987541 76.6775 0.976748 76.555 0.976748C75.0765 0.970002 73.5966 0.95921 72.118 0.963257C70.7092 0.967304 69.3004 0.98889 67.8917 1.00373C67.7876 1.00373 67.6836 1.01722 67.5743 1.02397C67.5585 1.18181 67.5441 1.32751 67.5296 1.47052C67.3979 1.48536 67.3795 1.47322 67.3742 1.36664C67.3703 1.28974 67.3742 1.21419 67.3716 1.13729C67.3716 1.08603 67.3676 1.03341 67.365 0.984843C66.974 0.945719 58.1381 0.964606 57.9893 1.00508C57.9709 1.16697 57.9511 1.33156 57.9327 1.4975H57.3139C57.2876 1.32347 57.2639 1.15618 57.2375 0.983493H48.4056C48.3859 1.16157 48.3661 1.33291 48.3464 1.5002H47.717C47.6947 1.32347 47.6736 1.15078 47.6525 0.976748H28.7274C28.7076 1.15078 28.6892 1.31672 28.6708 1.47726C28.597 1.49615 28.5773 1.46512 28.5668 1.41251C28.5391 1.2722 28.5088 1.13324 28.4772 0.990239H19.6585C19.6269 1.16967 19.5966 1.3437 19.5637 1.52988H19.1411C19.1174 1.71201 19.095 1.8793 19.0726 2.05468H18.5736C18.5552 3.87326 18.5367 5.68241 18.5183 7.4956H17.4018C17.3873 5.50702 17.4242 3.5252 17.3162 1.53528C17.1516 1.52313 16.9963 1.51234 16.833 1.50155C16.8146 1.33156 16.7962 1.16832 16.7777 0.998334C16.6263 0.990239 16.4867 0.979446 16.3472 0.978097C15.7982 0.972701 15.2504 0.964606 14.7014 0.967304C13.5823 0.97405 12.4632 0.98889 11.344 0.999683C11.2756 0.999683 11.2071 1.00913 11.1334 1.01452C11.1255 1.09952 11.1202 1.17102 11.111 1.24117C11.1004 1.31267 11.1268 1.39092 11.0781 1.46107C11.0135 1.4233 10.9885 1.36664 10.9767 1.30458C10.9675 1.25601 10.9609 1.20744 10.953 1.15888C10.928 0.98889 10.9082 0.971352 10.745 0.971352C7.72989 0.971352 4.71483 0.97405 1.69976 0.975399C1.65236 0.975399 1.60496 0.975399 1.55098 0.975399C1.52333 1.16427 1.497 1.341 1.46935 1.53123H1.02433C1.01512 1.65669 1.00327 1.76732 1.00063 1.8793C0.983517 2.7778 0.958501 3.67764 0.954551 4.57614C0.945335 6.35696 0.937435 8.13777 0.945335 9.91858C0.953235 11.667 0.980884 13.4168 1.00063 15.1652C1.00063 15.2759 1.01643 15.3878 1.02433 15.5092H1.47593C1.49963 15.6914 1.52202 15.8627 1.54571 16.0394H6.66079C6.68318 15.8614 6.70556 15.686 6.73057 15.4971H7.22563V14.5973C7.22563 14.2964 7.22431 13.9942 7.22563 13.6934C7.22826 13.3993 7.21641 13.1038 7.23221 12.8043H10.5303C10.5475 13.7082 10.5659 14.6053 10.583 15.5146H11.0846C11.1018 15.6995 11.1176 15.8708 11.1334 16.0435H29.0078C29.0315 15.8668 29.0539 15.6954 29.0763 15.5241C29.2514 15.5119 29.412 15.5012 29.5819 15.489C29.5911 15.1194 29.6016 14.7605 29.6108 14.4016C29.6201 14.0414 29.6253 13.6826 29.6359 13.3224C29.6477 12.9648 29.6398 12.6073 29.6622 12.2498H30.2468C30.2599 13.3358 30.2744 14.4124 30.2876 15.4985C30.4759 15.5092 30.6483 15.5187 30.8353 15.5281V16.0394H36.4494C36.4652 15.8614 36.481 15.69 36.4968 15.5079C36.5876 15.5079 36.6653 15.5079 36.7443 15.5079C36.8259 15.5079 36.9063 15.5039 36.9918 15.5025C37.0787 14.4111 37.0287 13.3318 37.0537 12.2485H37.6857C37.6857 12.3645 37.6857 12.4724 37.6857 12.579C37.691 13.3385 37.6949 14.0994 37.7028 14.859C37.7054 15.0694 37.7252 15.2785 37.7621 15.4931C37.9214 15.5065 38.0715 15.52 38.2268 15.5335C38.2439 15.7116 38.2584 15.8749 38.2729 16.0367H47.6459C47.671 15.8654 47.6947 15.7022 47.7184 15.5335H48.349C48.3622 15.7049 48.3754 15.8695 48.3885 16.0394H57.2244C57.252 15.8735 57.2797 15.7116 57.3073 15.5457H57.9446C57.959 15.713 57.9735 15.8722 57.988 16.0394L57.9933 16.0421Z" fill="white"/>
<path d="M11.1123 16.9987C11.1083 16.9919 11.1057 16.9838 11.1057 16.9771C11.1492 16.9757 11.1926 16.973 11.2374 16.973C17.1082 16.973 22.9777 16.973 28.8485 16.973C28.9091 16.973 28.971 16.9798 29.0315 16.9838V16.9973L29.0197 17H11.1123V16.9987Z" fill="white"/>
<path d="M0.0289657 12.1959C0.0197493 12.1959 0.00921636 12.1959 0 12.1959C0 9.8039 0 7.4106 0 5.01865C0.00921636 5.01865 0.0184327 5.01865 0.0276491 5.01865C0.0355488 5.05642 0.0513483 5.09555 0.0513483 5.13332C0.0513483 5.69455 0.0658311 6.25712 0.0447652 6.817C0.00526649 7.89898 0.0289657 8.9796 0.0289657 10.0616C0.0289657 10.7213 0.0447652 11.381 0.0513483 12.0394C0.0513483 12.0906 0.0368654 12.1432 0.0289657 12.1945V12.1959Z" fill="white"/>
<path d="M77.503 16.9757C77.5017 16.9838 77.499 16.9906 77.4964 16.9987H67.5691L67.5559 16.996V16.9825C67.6046 16.9784 67.652 16.9717 67.7007 16.9717C70.9423 16.9717 74.1825 16.9717 77.424 16.9717C77.4503 16.9717 77.4767 16.9744 77.503 16.9757Z" fill="white"/>
<path d="M38.2611 16.9987C38.2532 16.9946 38.2492 16.9879 38.2518 16.9784C38.3045 16.9757 38.3572 16.9717 38.4098 16.9717C41.4407 16.9717 44.4729 16.9717 47.5037 16.9717C47.5604 16.9717 47.617 16.9771 47.6736 16.9811C47.6696 16.9865 47.6657 16.9933 47.6631 16.9987H38.2611Z" fill="white"/>
<path d="M57.9722 16.9825C58.0249 16.9784 58.0762 16.9717 58.1289 16.9717C61.1598 16.9717 64.1919 16.9717 67.2228 16.9717C67.2715 16.9717 67.3189 16.9757 67.3676 16.9784C67.3716 16.9879 67.3676 16.9946 67.3584 16.9987H57.9841L57.9709 16.996V16.9825H57.9722Z" fill="white"/>
<path d="M48.3635 16.9784C48.4162 16.9757 48.4688 16.9717 48.5202 16.9717C51.3786 16.9717 54.2383 16.9717 57.0967 16.9717C57.1493 16.9717 57.202 16.9757 57.2533 16.9784C57.2573 16.9879 57.2533 16.9946 57.2441 16.9987H48.3701C48.3609 16.9946 48.3582 16.9879 48.3609 16.9784H48.3635Z" fill="white"/>
<path d="M13.423 0.0215856C12.845 0.0283311 12.2657 0.0337275 11.6877 0.0431712C11.4994 0.0458694 11.3111 0.0647568 11.1241 0.0742005C11.0991 0.0742005 11.0715 0.0728514 11.0465 0.0647568C10.9148 0.0229347 10.7792 0.0229347 10.6436 0.0229347C10.0471 0.0229347 9.45072 0.0229347 8.85429 0.0229347C8.85034 0.0161892 8.84902 0.0080946 8.84902 0H13.4309C13.4282 0.0067455 13.4256 0.0148401 13.4243 0.0215856H13.423Z" fill="#FFFDFD"/>
<path d="M36.4783 16.9771C36.4797 16.9865 36.4783 16.9933 36.4704 16.9987H30.809C30.809 16.9906 30.8063 16.9825 30.8037 16.9757C30.8643 16.9757 30.9261 16.9717 30.9867 16.9717C32.7563 16.9717 34.5258 16.9717 36.294 16.9717C36.3546 16.9717 36.4165 16.9757 36.477 16.9771H36.4783Z" fill="white"/>
<path d="M1.52728 16.9987C1.52728 16.9906 1.52465 16.9825 1.52202 16.9757C1.56546 16.973 1.60891 16.969 1.65368 16.969C3.29024 16.969 4.92549 16.969 6.56205 16.969C6.6055 16.969 6.64894 16.973 6.69371 16.9744C6.68976 16.9825 6.68844 16.9892 6.68844 16.9987H1.52728Z" fill="white"/>
<path d="M70.6947 0.0215856C70.6947 0.013491 70.6974 0.0067455 70.7026 0H75.6268C75.6268 0 75.6347 0.013491 75.6347 0.0215856C75.5873 0.0256329 75.5386 0.0323784 75.4912 0.0323784C73.9442 0.0323784 72.3984 0.0323784 70.8514 0.0323784C70.7987 0.0323784 70.7474 0.0256329 70.6947 0.0215856Z" fill="white"/>
<path d="M8.8477 0C8.8477 0.0080946 8.85034 0.0161892 8.85297 0.0229347C8.8003 0.026982 8.74896 0.0323784 8.69629 0.0323784C7.25196 0.0323784 5.80631 0.0323784 4.36197 0.0323784C4.30931 0.0323784 4.25796 0.0256329 4.20529 0.0215856C4.20529 0.013491 4.20793 0.0067455 4.21319 0H8.8477Z" fill="white"/>
<path d="M13.423 0.0215856C13.4243 0.013491 13.4269 0.0067455 13.4296 0H15.3782C15.3808 0.0067455 15.3821 0.0148401 15.3847 0.0229347C15.3452 0.026982 15.3071 0.0337275 15.2676 0.0337275C14.6909 0.0337275 14.1155 0.0337275 13.5388 0.0337275C13.4993 0.0337275 13.4611 0.026982 13.4217 0.0229347L13.423 0.0215856Z" fill="white"/>
<path d="M57.2468 16.9986C57.256 16.9946 57.2586 16.9879 57.256 16.9784C57.2599 16.9784 57.2652 16.9784 57.2691 16.9784C57.5048 16.8921 57.7392 16.9056 57.9735 16.9838V16.9973L57.9854 17H57.2481L57.2468 16.9986Z" fill="#FFFDFD"/>
<path d="M78.9776 9.83898C78.9842 9.84168 78.9908 9.84573 78.9974 9.84842L78.9974 10.1722C78.9539 10.0629 78.9644 9.95096 78.9776 9.83898Z" fill="white"/>
<path d="M78.9974 14.3005C78.9974 14.3005 78.9868 14.3099 78.9816 14.3139C78.9644 14.2182 78.9565 14.1224 78.9974 14.0306L78.9974 14.3005Z" fill="white"/>
<path d="M67.3584 16.9987C67.3676 16.9946 67.3703 16.9879 67.3676 16.9784C67.4308 16.9798 67.494 16.9811 67.5572 16.9825V16.996L67.5691 16.9987H67.3584Z" fill="#FFFDFD"/>
<path d="M57.9933 16.0421C57.9788 15.8762 57.9643 15.717 57.9498 15.5484H57.3126C57.2849 15.7143 57.2573 15.8762 57.2296 16.0421H48.3938C48.3806 15.8722 48.3675 15.7076 48.3543 15.5362H47.7236C47.6986 15.7062 47.6762 15.8681 47.6512 16.0394H38.2782C38.2637 15.8775 38.2479 15.713 38.2321 15.5362C38.0767 15.5227 37.9266 15.5092 37.7673 15.4958C37.7305 15.2826 37.7107 15.0721 37.7081 14.8617C37.7002 14.1021 37.6962 13.3412 37.691 12.5817C37.691 12.4751 37.691 12.3672 37.691 12.2512H37.059C37.034 13.3345 37.084 14.4124 36.9971 15.5052C36.9128 15.5065 36.8312 15.5092 36.7496 15.5106C36.6719 15.5106 36.5929 15.5106 36.502 15.5106C36.4862 15.6927 36.4704 15.8641 36.4546 16.0421H30.8406V15.5308C30.6536 15.52 30.4811 15.5106 30.2929 15.5012C30.2797 14.4151 30.2652 13.3385 30.252 12.2525H29.6675C29.6464 12.61 29.653 12.9675 29.6411 13.3251C29.6293 13.6839 29.624 14.0441 29.6161 14.4043C29.6069 14.7632 29.5977 15.1221 29.5871 15.4917C29.4173 15.5038 29.2567 15.5146 29.0816 15.5268C29.0592 15.6981 29.0368 15.8695 29.0131 16.0462H11.1386C11.1228 15.8749 11.107 15.7022 11.0899 15.5173H10.5883C10.5698 14.6067 10.5527 13.7109 10.5356 12.807H7.23747C7.22036 13.1065 7.23221 13.402 7.23089 13.6961C7.22826 13.9969 7.23089 14.2991 7.23089 14.6V15.4998H6.73584C6.71214 15.6873 6.68976 15.8641 6.66606 16.0421H1.54966C1.52597 15.8668 1.50358 15.6941 1.47988 15.5119H1.02828C1.01907 15.3892 1.0059 15.2785 1.00458 15.1679C0.984834 13.4195 0.957185 11.6697 0.949285 9.92128C0.941385 8.14046 0.949285 6.35965 0.958501 4.57884C0.963768 3.67899 0.987467 2.78049 1.00458 1.88199C1.00722 1.77137 1.01907 1.65939 1.02828 1.53393H1.4733C1.50095 1.3437 1.52728 1.16697 1.55493 0.978097C1.60891 0.978097 1.65631 0.978097 1.70371 0.978097C4.71878 0.976748 7.73384 0.975399 10.7489 0.97405C10.9122 0.97405 10.9319 0.991588 10.9569 1.16157C10.9635 1.21014 10.9701 1.26006 10.9806 1.30728C10.9938 1.37068 11.0175 1.426 11.082 1.46377C11.1307 1.39362 11.1044 1.31537 11.1149 1.24387C11.1255 1.17372 11.1294 1.10221 11.1373 1.01722C11.211 1.01182 11.2795 1.00238 11.348 1.00238C12.4671 0.990239 13.5862 0.976748 14.7054 0.970002C15.2544 0.965955 15.8021 0.975399 16.3511 0.980795C16.4907 0.982144 16.6303 0.994286 16.7817 1.00103C16.8001 1.17237 16.8185 1.33426 16.837 1.50425C17.0002 1.51504 17.1556 1.52718 17.3202 1.53797C17.4281 3.52789 17.3913 5.50972 17.4058 7.49829H18.5222C18.5407 5.6851 18.5591 3.87596 18.5775 2.05738H19.0765C19.0989 1.88199 19.1213 1.71336 19.145 1.53258H19.5676C19.6006 1.34775 19.6308 1.17237 19.6624 0.992937H28.4812C28.5115 1.13594 28.5431 1.2749 28.5707 1.41521C28.5812 1.46782 28.601 1.49885 28.6747 1.47996C28.6932 1.31942 28.7116 1.15213 28.7313 0.979446H47.6565C47.6775 1.15348 47.6986 1.32482 47.721 1.5029H48.3503C48.3701 1.33426 48.3885 1.16427 48.4096 0.986192H57.2415C57.2665 1.15888 57.2915 1.32616 57.3178 1.5002H57.9367C57.9564 1.33426 57.9748 1.16967 57.9933 1.00778C58.1407 0.967304 66.9779 0.948417 67.3689 0.987541C67.3716 1.03746 67.3742 1.08872 67.3755 1.13999C67.3768 1.21689 67.3742 1.29244 67.3782 1.36934C67.3834 1.47726 67.4019 1.48941 67.5335 1.47322C67.548 1.33021 67.5625 1.18586 67.5783 1.02666C67.6876 1.01992 67.7916 1.00778 67.8956 1.00643C69.3044 0.991588 70.7132 0.970002 72.122 0.965955C73.6005 0.961908 75.0791 0.97405 76.559 0.979446C76.6814 0.979446 76.8039 0.990239 76.9382 0.996984C76.9592 1.17102 76.979 1.33831 77.0014 1.52043H77.4859C77.4911 1.58654 77.4977 1.63916 77.4977 1.69177C77.5017 2.34339 77.5043 2.99635 77.5069 3.64796C77.5122 5.25339 77.5162 6.85882 77.5214 8.46425C77.5214 8.50472 77.5214 8.54385 77.5214 8.60051H77.998C78.0165 8.76105 78.0415 8.90675 78.0481 9.05246C78.1047 10.4231 78.1126 11.7952 78.0994 13.1659C78.0928 13.831 78.0691 14.4961 78.0494 15.1612C78.0454 15.2718 78.0231 15.3811 78.0086 15.5025H77.5399C77.5162 15.6887 77.4938 15.8654 77.4701 16.0462H67.5836V15.5915C67.4572 15.5308 67.4071 15.5511 67.3847 15.6671C67.3716 15.7372 67.3689 15.8101 67.361 15.8816C67.3558 15.9342 67.3479 15.9868 67.3413 16.0448H57.9972L57.9933 16.0421ZM39.475 11.5024C39.475 11.6508 39.475 11.7763 39.475 11.9018C39.475 12.0218 39.4842 12.0286 39.604 12.0326C39.6264 12.0326 39.6475 12.0326 39.6698 12.0326C41.8383 12.034 44.0055 12.0353 46.174 12.0367C46.2174 12.0367 46.2622 12.0367 46.3056 12.0353C46.461 12.0272 46.4662 12.0218 46.4755 11.8653C46.4834 11.7426 46.4939 11.6184 46.5031 11.4849H46.9916C47.0008 11.296 47.01 11.1193 47.0192 10.9331H47.5143V3.24863H46.9968V2.72518C46.8204 2.71169 46.6519 2.69955 46.4715 2.68606V2.15991C44.1398 2.15316 41.8199 2.15181 39.496 2.15991C39.4829 2.34878 39.471 2.52147 39.4579 2.7036H39.1129C39.1103 2.75351 39.1076 2.79264 39.1076 2.83176C39.1076 4.58964 39.109 6.34751 39.1076 8.10674C39.1076 8.18229 39.1076 8.26323 39.08 8.33069C39.0589 8.38195 38.997 8.41568 38.9575 8.45346V11.5011H39.4737L39.475 11.5024ZM23.0277 12.0151C23.0448 11.8343 23.0593 11.6711 23.0751 11.493H23.5926C23.5926 11.4242 23.5926 11.3716 23.5926 11.3189C23.5939 10.353 23.5965 9.38568 23.5991 8.41973C23.5991 8.35902 23.6084 8.29966 23.6136 8.24165C23.8664 8.21736 24.4655 8.22681 24.5669 8.25784V11.4714C24.7446 11.4903 24.9118 11.5078 25.083 11.5267C25.0961 11.6886 25.1093 11.8383 25.1212 11.984C25.5293 12.0812 27.5622 12.0758 27.8268 11.9773C27.8439 11.8222 27.8611 11.663 27.8808 11.4903H28.3495V3.28101C28.1757 3.24458 28.0019 3.28506 27.8255 3.23244V2.72923C27.6478 2.71169 27.4832 2.69685 27.3068 2.67931V2.19229C27.1632 2.18149 27.0329 2.16665 26.9026 2.16396C26.4549 2.15316 26.0072 2.14372 25.5609 2.14102C24.1047 2.13023 22.6485 2.14642 21.1924 2.19094C21.0844 2.19364 20.9764 2.21117 20.8632 2.22197C20.85 2.38251 20.8395 2.53226 20.8263 2.68606C20.6552 2.7009 20.4945 2.71439 20.3194 2.72923C20.3115 2.88977 20.305 3.04492 20.2971 3.21221C20.1325 3.23109 19.9732 3.24863 19.8086 3.26752C19.7994 3.42806 19.7849 3.58051 19.7836 3.73161C19.7783 4.27125 19.777 4.81089 19.773 5.35053C19.7678 6.1465 19.7638 6.94247 19.7586 7.73708C19.7586 7.89628 19.7717 8.04738 19.9574 8.10404C19.9574 8.158 19.9574 8.20792 19.9574 8.25649C19.9574 8.6882 19.9587 9.11991 19.9574 9.55162C19.9547 10.0724 19.9482 10.5945 19.9455 11.1152C19.9455 11.2339 19.9574 11.354 19.9626 11.4754C20.0824 11.4916 20.1851 11.5065 20.2944 11.5213C20.3076 11.6792 20.3208 11.8303 20.3352 12.0016C21.2345 12.0609 22.1298 12.0744 23.0304 12.0137L23.0277 12.0151ZM56.0341 2.20308C55.9881 2.19768 55.9591 2.19094 55.9288 2.18959C55.6971 2.18014 55.464 2.1653 55.2323 2.1653C53.9117 2.16126 52.5912 2.15721 51.2706 2.15991C50.7663 2.15991 50.2621 2.1788 49.7578 2.19094C49.7104 2.19094 49.6643 2.20038 49.6064 2.20713C49.5945 2.37037 49.584 2.52416 49.5722 2.68336C49.3957 2.6982 49.2312 2.71034 49.0534 2.72518V3.20276C48.9375 3.22705 48.8362 3.24863 48.7387 3.26887C48.7085 3.49552 48.7203 10.8414 48.7506 10.9371C48.8414 10.956 48.9349 10.9749 49.031 10.9938C49.0442 11.1584 49.056 11.3135 49.0692 11.4754C49.2443 11.4916 49.4089 11.5065 49.5893 11.5227V11.9814C49.6354 11.9908 49.6643 12.0002 49.6946 12.0016C49.8605 12.011 50.0277 12.0232 50.1936 12.0272C50.6018 12.0367 51.0099 12.0502 51.4167 12.0488C52.8071 12.0448 54.1975 12.0353 55.5891 12.0259C55.7366 12.0259 55.884 12.0056 56.0381 11.9948C56.0499 11.8303 56.0618 11.6792 56.0736 11.5119C56.2448 11.5024 56.4133 11.493 56.5832 11.4835C56.595 11.3014 56.6069 11.1328 56.6174 10.9614C56.7899 10.9493 56.9505 10.9371 57.123 10.925C57.1283 10.693 57.1375 10.4744 57.1388 10.2545C57.1533 8.15935 57.1559 6.06555 57.1125 3.9704C57.1085 3.77343 57.0993 3.57511 57.0914 3.37815C57.0901 3.34037 57.0809 3.30125 57.0756 3.26347C56.9097 3.24998 56.7517 3.28506 56.5884 3.23514V2.72788C56.4107 2.71439 56.2474 2.70225 56.0763 2.68875C56.0631 2.52416 56.0499 2.36902 56.0368 2.20308H56.0341ZM67.2149 10.9237C67.2202 10.8737 67.2254 10.8387 67.2254 10.8022C67.232 10.5054 67.2452 10.2086 67.2452 9.91183C67.2412 9.03492 67.2333 8.158 67.2241 7.28244C67.2215 7.07198 67.2096 6.86017 67.2004 6.64971C67.1991 6.61463 67.1899 6.58091 67.182 6.54178C67.0214 6.52694 66.866 6.5121 66.7014 6.49726V6.01833C66.3828 5.91985 63.2032 5.9212 62.9293 6.02103C62.924 6.09658 62.9174 6.17618 62.9122 6.25577C62.9069 6.33537 62.903 6.41362 62.8977 6.49726C62.72 6.51345 62.5554 6.52829 62.3908 6.54313V7.65749H62.899C62.9122 7.85041 62.9253 8.02714 62.9372 8.20522C63.0965 8.2403 63.2519 8.19308 63.402 8.23625V9.19411C63.2045 9.26157 62.1472 9.24673 61.9405 9.17387V4.92826H64.4842C64.7699 4.92826 65.0543 4.92961 65.34 4.92826C65.6192 4.92556 65.8983 4.9377 66.1932 4.92017V4.41695C66.3683 4.40346 66.5289 4.39267 66.6843 4.38053C66.7133 4.21459 66.7067 2.82501 66.6764 2.72518C66.5145 2.71169 66.3499 2.6982 66.184 2.68471C66.1563 2.51607 66.1866 2.35283 66.1366 2.18689C65.9523 2.17745 65.7732 2.15991 65.5941 2.15991C63.5797 2.15721 61.5666 2.15586 59.5522 2.15451C59.4639 2.15451 59.377 2.15721 59.2888 2.16126C59.2559 2.16261 59.2217 2.1734 59.1848 2.18149C59.1677 2.35283 59.1519 2.51607 59.1361 2.68606C58.9768 2.69415 58.8293 2.7009 58.6674 2.70899C58.6569 2.87763 58.6463 3.03682 58.6345 3.20546C58.5265 3.23514 58.4185 3.26482 58.3159 3.29315V10.9142C58.4264 10.9331 58.5278 10.9506 58.6332 10.9682C58.6424 11.1476 58.6503 11.3162 58.6582 11.4997H59.194V12.0137H66.1616C66.1708 11.8397 66.18 11.6765 66.1906 11.5051C66.3683 11.4957 66.5289 11.4876 66.7001 11.4795C66.7133 11.3014 66.7251 11.1328 66.737 10.9587C66.8989 10.9466 67.0503 10.9344 67.2149 10.9223V10.9237ZM68.234 2.70764V5.30196C68.2945 5.32489 68.3512 5.34513 68.4183 5.37076V11.4835C68.5368 11.4943 68.6434 11.5038 68.7619 11.5146V12.007H76.2812C76.293 11.837 76.3036 11.6738 76.3154 11.4957H76.7947V9.79986C76.6222 9.78906 76.4563 9.80525 76.2825 9.78906V9.22784H72.0443C72.0403 8.88112 72.0403 8.54654 72.0522 8.20117H75.2358V7.66828H75.744V6.55258C75.5676 6.53504 75.3951 6.51885 75.2121 6.50131V5.96976H72.0456C72.0456 5.62035 72.0377 5.28172 72.0469 4.93096H75.7677V4.39537H76.2746V2.70225H75.7506V2.18554C75.6176 2.17745 75.4951 2.1653 75.3727 2.1653C74.2457 2.15991 73.1173 2.14912 71.9903 2.15316C71.0384 2.15721 70.0865 2.1761 69.1345 2.19094C69.0134 2.19229 68.8936 2.20578 68.7659 2.21522C68.7593 2.38791 68.7527 2.54305 68.7461 2.70899H68.2353L68.234 2.70764ZM2.23431 2.69955C2.22773 2.78319 2.21851 2.8493 2.21719 2.9154C2.20929 3.50901 2.19613 4.10261 2.19481 4.69621C2.19349 5.79708 2.19481 6.89929 2.20271 8.00016C2.20929 9.06055 2.22509 10.1223 2.23694 11.1827C2.23694 11.2798 2.24352 11.377 2.24747 11.4808C2.4239 11.497 2.58321 11.5119 2.74516 11.5267C2.77544 11.6899 2.73463 11.8478 2.77149 12.0002H5.4495C5.46267 11.8397 5.47583 11.6845 5.489 11.5227C5.66411 11.5078 5.83132 11.493 6.01038 11.4768C6.01038 11.0181 6.00248 10.5742 6.01302 10.129C6.02355 9.68114 6.00775 9.23324 6.03145 8.7705C6.22368 8.7705 6.39879 8.7705 6.57258 8.7705C6.74769 8.7705 6.92412 8.7705 7.09923 8.7705C7.27434 8.7705 7.45077 8.7705 7.62588 8.7705C7.79704 8.7705 7.9682 8.7705 8.13936 8.7705C8.31447 8.7705 8.4909 8.7705 8.66601 8.7705C8.84112 8.7705 9.01755 8.7705 9.19266 8.7705C9.36645 8.7705 9.54025 8.77319 9.72326 8.7651C9.72326 8.6936 9.72326 8.63963 9.72326 8.58702C9.72457 8.53305 9.72721 8.47909 9.73116 8.42512C9.74564 8.26728 9.76934 8.24165 9.92075 8.22411C10.0234 8.21197 10.1275 8.20387 10.2315 8.19308C10.2525 8.02714 10.2723 7.87334 10.2934 7.71415C10.4553 7.68987 10.6054 7.66558 10.7594 7.64265C10.77 7.49155 10.7831 7.35259 10.7871 7.21498C10.7976 6.82914 10.8108 6.44195 10.8095 6.05476C10.8068 5.20483 10.7976 4.35489 10.7884 3.50631C10.7884 3.43076 10.7739 3.35656 10.766 3.27831C10.6001 3.25403 10.4461 3.23244 10.2881 3.20951C10.271 3.04087 10.2552 2.88707 10.2394 2.72113C10.0682 2.70764 9.90758 2.6955 9.73247 2.68201V2.2422C9.51128 2.19768 9.30457 2.16126 9.09391 2.16126C7.24274 2.15991 5.39025 2.15721 3.53908 2.15586C3.35475 2.15586 3.17043 2.15316 2.9861 2.15721C2.90447 2.15856 2.82416 2.1734 2.72673 2.18284V2.6982H2.23168L2.23431 2.69955ZM37.9477 7.09222C37.9477 7.02611 37.9477 6.97349 37.9477 6.92088C37.9477 6.17483 37.9477 5.42878 37.9477 4.68272C37.9477 4.12015 37.9477 3.55892 37.9477 2.99635C37.9477 2.7751 37.8806 2.70899 37.6633 2.7036C37.633 2.7036 37.6014 2.7036 37.5711 2.7036C37.5251 2.70225 37.4777 2.69955 37.4276 2.69685C37.4131 2.51607 37.4 2.34743 37.3868 2.18284C37.2196 2.15316 34.7786 2.15991 34.6825 2.18959C34.6667 2.35553 34.6904 2.52551 34.6667 2.70629H34.1321V5.3937C33.9807 5.42608 33.2855 5.42068 33.1815 5.3856C33.1815 5.34108 33.1815 5.29117 33.1815 5.2426C33.1802 4.92826 33.1815 4.61257 33.1763 4.29823C33.1697 3.822 33.1591 3.34577 33.1486 2.86953C33.1486 2.81692 33.1381 2.7643 33.1315 2.69955H32.6246C32.6246 2.57408 32.6272 2.46211 32.6246 2.35148C32.6206 2.18419 32.5943 2.15856 32.4284 2.15856C32.0953 2.15721 31.7609 2.15721 31.4278 2.15721C31.0065 2.15721 30.5851 2.15721 30.1638 2.15721C30.0782 2.15721 29.9927 2.1707 29.9018 2.1788C29.89 2.36092 29.8808 2.52416 29.8702 2.68741C29.7504 2.70494 29.6477 2.72113 29.5503 2.73597C29.5147 2.95453 29.5239 6.92223 29.5595 7.10975C29.6714 7.1219 29.786 7.13404 29.9018 7.14618C29.9058 7.18665 29.911 7.20824 29.9084 7.22982C29.9018 7.31077 29.8926 7.39037 29.886 7.47131C29.8755 7.59948 29.9202 7.65614 30.0453 7.66693C30.1059 7.67233 30.1678 7.66693 30.2297 7.66693C30.2889 7.66693 30.3482 7.66693 30.4113 7.66693C30.4245 7.8585 30.4364 8.03658 30.4495 8.22816H31.4818C31.4844 9.32767 31.4857 10.4123 31.4883 11.5146H32.0426V12.0029H35.2736C35.2789 11.9166 35.2815 11.8356 35.2868 11.7561C35.2921 11.6724 35.2987 11.5888 35.3052 11.4903H35.8279C35.8358 10.3908 35.8253 9.30474 35.8437 8.20387H36.8931V7.68717C37.0669 7.66963 37.2262 7.65344 37.3855 7.63725C37.4026 7.46322 37.4184 7.30942 37.4342 7.14753C37.6054 7.12864 37.766 7.1111 37.9477 7.09222ZM11.9523 2.70764V8.89731C11.8878 8.9162 11.8338 8.93239 11.7693 8.94992C11.7917 9.79581 11.7522 10.6376 11.7969 11.4822C11.9826 11.4943 12.1511 11.5065 12.3289 11.5173V12.0043H18.2484C18.2629 11.8329 18.276 11.6684 18.2905 11.493H18.754C18.7816 11.296 18.7737 9.33037 18.7448 9.22919H18.2905C18.276 9.05516 18.2616 8.88787 18.2471 8.70709H16.1418C16.1418 8.65177 16.1418 8.61265 16.1418 8.57218C16.1405 7.83017 16.1392 7.08817 16.1365 6.34616C16.1326 5.18594 16.1273 4.02571 16.1207 2.86549C16.1207 2.81827 16.1168 2.77105 16.1155 2.71843C15.9311 2.70764 15.7626 2.6982 15.5809 2.68741V2.18149H12.3104V2.68741C12.188 2.69415 12.08 2.69955 11.9523 2.70629V2.70764Z" fill="#030202"/>
<path d="M39.475 11.5024L38.9589 11.5024V8.4548C38.9984 8.41703 39.0616 8.3833 39.0813 8.33204C39.1076 8.26458 39.109 8.18364 39.109 8.10809C39.109 6.35021 39.109 4.59233 39.109 2.83311C39.109 2.79398 39.1129 2.75486 39.1142 2.70494H39.4592C39.4723 2.52282 39.4842 2.35013 39.4974 2.16126C41.8212 2.15181 44.1411 2.15316 46.4728 2.16126V2.68741C46.6532 2.7009 46.8217 2.71304 46.9982 2.72653V3.24998H47.5156V10.9331H47.0205C47.0113 11.1193 47.0021 11.296 46.9929 11.4849H46.5044C46.4939 11.6184 46.4847 11.7426 46.4768 11.8653C46.4662 12.0205 46.4623 12.0272 46.3069 12.0353C46.2635 12.038 46.2187 12.0367 46.1753 12.0367C44.0068 12.0367 41.8396 12.034 39.6712 12.0326C39.6488 12.0326 39.6277 12.0326 39.6053 12.0326C39.4855 12.0299 39.4763 12.0218 39.4763 11.9018C39.4763 11.7763 39.4763 11.6508 39.4763 11.5024L39.475 11.5024ZM42.7771 4.95254V9.21974H43.7106V4.93501C43.3959 4.93905 43.0904 4.92556 42.7771 4.95254ZM39.5829 3.31474V9.78367H39.9648C40.0345 9.49361 40.0266 3.69653 39.9555 3.31474H39.5829ZM40.1083 3.22165C40.3361 3.24998 44.6901 3.23919 44.7876 3.20951C44.7876 3.1407 44.7876 3.06785 44.7876 2.99635C44.7876 2.9262 44.7862 2.85739 44.7849 2.79129H40.1083V3.22165ZM45.4459 2.78589V3.22165H45.8527V2.78589H45.4459ZM39.5869 10.8697H39.9898V10.4177H39.5869V10.8697Z" fill="#CA5EFE"/>
<path d="M23.0277 12.0151C22.1272 12.0758 21.2319 12.0623 20.3326 12.0029C20.3181 11.8329 20.305 11.6819 20.2918 11.5227C20.1825 11.5078 20.0798 11.493 19.96 11.4768C19.9534 11.3554 19.9416 11.2353 19.9429 11.1166C19.9455 10.5958 19.9521 10.0737 19.9547 9.55297C19.9574 9.12126 19.9547 8.68955 19.9547 8.25784C19.9547 8.20927 19.9547 8.15935 19.9547 8.10539C19.7691 8.04873 19.7546 7.89763 19.7559 7.73843C19.7612 6.94247 19.7665 6.1465 19.7704 5.35188C19.773 4.81224 19.7744 4.2726 19.7809 3.73296C19.7823 3.58186 19.7967 3.42941 19.806 3.26887C19.9705 3.24998 20.1298 3.23244 20.2944 3.21355C20.3023 3.04627 20.3089 2.89112 20.3168 2.73058C20.4932 2.71574 20.6539 2.70225 20.8237 2.68741C20.8356 2.53361 20.8474 2.38386 20.8606 2.22332C20.9738 2.21252 21.0818 2.19633 21.1897 2.19229C22.6459 2.14777 24.1021 2.13023 25.5583 2.14237C26.0059 2.14642 26.4536 2.15586 26.8999 2.1653C27.0303 2.168 27.1606 2.18284 27.3041 2.19364V2.68066C27.4805 2.6982 27.6438 2.71304 27.8229 2.73058V3.23379C27.9993 3.28641 28.1731 3.24458 28.3469 3.28236V11.4916H27.8782C27.8597 11.6643 27.8413 11.8235 27.8242 11.9787C27.5595 12.0771 25.5267 12.0839 25.1185 11.9854C25.1067 11.8397 25.0935 11.6899 25.0803 11.5281C24.9092 11.5092 24.742 11.4916 24.5642 11.4727V8.25919C24.4615 8.22681 23.8625 8.21736 23.611 8.243C23.6057 8.29966 23.5978 8.36037 23.5965 8.42108C23.5939 9.38703 23.5926 10.3543 23.5899 11.3203C23.5899 11.3729 23.5899 11.4269 23.5899 11.4943H23.0725C23.0567 11.6711 23.0409 11.8356 23.0251 12.0164L23.0277 12.0151ZM20.8421 9.22379C20.8448 9.17118 20.8487 9.13205 20.8487 9.09158C20.8487 7.44163 20.8487 5.79168 20.8474 4.14173C20.8474 4.08777 20.8408 4.03381 20.8356 3.98119C20.829 3.90294 20.7868 3.85977 20.7105 3.84763C20.6104 3.83279 20.5103 3.83144 20.4142 3.87866V9.22379H20.8421ZM25.5951 2.79264H21.4833V3.24593C21.5794 3.24998 21.6663 3.25807 21.7532 3.25673C21.9639 3.25268 22.1746 3.23784 22.3839 3.23784C23.1475 3.23514 23.9112 3.23784 24.6748 3.23784C24.9342 3.23784 25.1923 3.23784 25.4516 3.23514C25.5017 3.23514 25.5517 3.22435 25.607 3.21895C25.607 3.08944 25.607 2.97746 25.607 2.86549C25.607 2.8439 25.6004 2.82232 25.5965 2.79398L25.5951 2.79264ZM24.5392 4.95794C24.3536 4.92556 23.7269 4.93096 23.6281 4.96334V5.98056C23.9362 5.98056 24.2351 5.98326 24.5392 5.97921V4.95794ZM20.825 10.2896C20.825 10.1493 20.8369 10.0049 20.8171 9.85382C20.6749 9.85382 20.5459 9.84573 20.4116 9.86057V10.3193C20.6196 10.3732 20.6894 10.3678 20.825 10.2896ZM26.2706 2.78049C26.2706 2.93969 26.2561 3.08404 26.2798 3.23244C26.4259 3.23244 26.5589 3.24054 26.6866 3.22705V2.78049H26.2693H26.2706ZM20.9698 3.35116C20.9514 3.49147 20.9606 3.63043 20.9633 3.78018C21.0554 3.78018 21.1331 3.78692 21.2095 3.77883C21.3122 3.76803 21.3543 3.71542 21.3569 3.61019C21.3596 3.5198 21.3425 3.43346 21.299 3.35116H20.9685H20.9698Z" fill="#B6FF5C"/>
<path d="M56.0341 2.20308C56.0473 2.36902 56.0605 2.52551 56.0736 2.68875C56.2448 2.70225 56.4094 2.71439 56.5858 2.72788V3.23514C56.7491 3.28506 56.9071 3.24998 57.073 3.26347C57.0782 3.30125 57.0874 3.33902 57.0888 3.37814C57.0967 3.57511 57.1059 3.77343 57.1098 3.9704C57.1533 6.06555 57.1493 8.15935 57.1362 10.2545C57.1348 10.4744 57.1256 10.693 57.1204 10.925C56.9479 10.9371 56.7872 10.9493 56.6148 10.9614C56.6029 11.1328 56.5924 11.3014 56.5805 11.4835C56.4107 11.493 56.2422 11.5024 56.071 11.5119C56.0592 11.6792 56.0473 11.8316 56.0355 11.9948C55.8814 12.0056 55.734 12.0245 55.5865 12.0259C54.1961 12.0353 52.8058 12.0448 51.4141 12.0488C51.006 12.0488 50.5978 12.0367 50.191 12.0272C50.0251 12.0232 49.8579 12.011 49.692 12.0016C49.6617 12.0002 49.6327 11.9908 49.5866 11.9814V11.5227C49.4063 11.5065 49.2417 11.4916 49.0666 11.4754C49.0534 11.3135 49.0416 11.1584 49.0284 10.9938C48.9323 10.9736 48.8388 10.9547 48.748 10.9371C48.7177 10.8414 48.7058 3.49552 48.7361 3.26887C48.8335 3.24863 48.9349 3.22705 49.0508 3.20276V2.72518C49.2298 2.71034 49.3944 2.6982 49.5695 2.68336C49.5814 2.52416 49.5919 2.37037 49.6038 2.20713C49.6617 2.20038 49.7091 2.19229 49.7552 2.19094C50.2594 2.1788 50.7637 2.16126 51.268 2.15991C52.5885 2.15721 53.9091 2.16126 55.2297 2.1653C55.4614 2.1653 55.6944 2.18149 55.9262 2.18959C55.9565 2.18959 55.9854 2.19768 56.0315 2.20308H56.0341ZM53.2929 9.23593C53.3219 9.00794 53.3114 5.06722 53.285 4.96873H52.3594C52.3226 5.18999 52.3344 9.11856 52.37 9.23593H53.2942H53.2929ZM49.1627 3.85303C49.1285 5.65408 49.1179 7.43489 49.1627 9.21974H49.5866C49.5866 9.16578 49.5866 9.12126 49.5866 9.07674C49.5866 7.44163 49.5866 5.80652 49.5866 4.17007C49.5866 4.1161 49.5866 4.06214 49.584 4.00817C49.5774 3.8908 49.5485 3.85977 49.43 3.85438C49.347 3.85033 49.2641 3.85438 49.1601 3.85438L49.1627 3.85303ZM54.3673 2.79264H50.245V3.21086C50.3476 3.2176 50.4424 3.23109 50.5372 3.23109C51.7604 3.22435 52.9835 3.21625 54.2067 3.20816C54.258 3.20816 54.3094 3.19737 54.366 3.19062V2.79264H54.3673ZM50.0935 3.77343V3.34442C49.9487 3.34442 49.8118 3.33632 49.6656 3.35116C49.6749 3.50631 49.6828 3.64662 49.692 3.80176C49.8329 3.79232 49.9606 3.78422 50.0935 3.77478V3.77343ZM55.4311 3.23109C55.4311 3.07325 55.4403 2.93294 55.4245 2.79129H55.0348V3.23109H55.4311ZM49.5708 10.3274V9.87676H49.1917V10.3274H49.5708Z" fill="#B6FF5C"/>
<path d="M67.2149 10.9237C67.0516 10.9358 66.8989 10.9479 66.737 10.9601C66.7251 11.1341 66.7133 11.3028 66.7001 11.4808C66.5289 11.4889 66.3683 11.4984 66.1906 11.5065C66.1814 11.6778 66.1721 11.841 66.1616 12.0151H59.194V11.5011H58.6582C58.649 11.3176 58.6411 11.149 58.6332 10.9695C58.5278 10.952 58.4264 10.9345 58.3159 10.9156V3.2945C58.4172 3.26617 58.5252 3.23649 58.6345 3.20681C58.645 3.03952 58.6555 2.87898 58.6674 2.71034C58.8293 2.70225 58.9768 2.6955 59.1361 2.68741C59.1532 2.51742 59.169 2.35283 59.1848 2.18284C59.2217 2.1761 59.2546 2.1653 59.2888 2.16261C59.377 2.15856 59.4639 2.15586 59.5522 2.15586C61.5666 2.15586 63.5797 2.15721 65.5941 2.16126C65.7732 2.16126 65.9523 2.1788 66.1366 2.18824C66.1866 2.35283 66.1577 2.51742 66.184 2.68606C66.3499 2.69955 66.5145 2.71304 66.6764 2.72653C66.7067 2.82636 66.7133 4.21594 66.6843 4.38187C66.5276 4.39402 66.3683 4.40481 66.1932 4.4183V4.92151C65.8983 4.93905 65.6192 4.92826 65.34 4.92961C65.0543 4.93231 64.7699 4.92961 64.4842 4.92961H61.9405V9.17522C62.1472 9.24673 63.2045 9.26157 63.402 9.19546V8.2376C63.2519 8.19443 63.0965 8.24165 62.9372 8.20657C62.9253 8.02849 62.9122 7.85176 62.899 7.65884H62.3908V6.54448C62.5554 6.52964 62.72 6.5148 62.8977 6.49861C62.903 6.41497 62.9069 6.33537 62.9122 6.25712C62.9174 6.17753 62.924 6.09658 62.9293 6.02238C63.2045 5.92255 66.3828 5.9212 66.7014 6.01968V6.49861C66.8673 6.51345 67.0214 6.52829 67.182 6.54313C67.1886 6.58226 67.1991 6.61733 67.2004 6.65106C67.2096 6.86152 67.2215 7.07333 67.2241 7.28379C67.2333 8.1607 67.2412 9.03762 67.2452 9.91318C67.2452 10.21 67.2333 10.5068 67.2254 10.8036C67.2254 10.8387 67.2189 10.8737 67.2149 10.925V10.9237ZM58.7372 3.85842C58.7319 3.92183 58.7253 3.965 58.7253 4.00952C58.7174 4.33735 58.7043 4.66519 58.7043 4.99302C58.7082 6.17483 58.7161 7.35664 58.7227 8.53845C58.7227 8.65042 58.7227 8.76375 58.7293 8.87572C58.7345 8.9904 58.7464 9.10507 58.7556 9.22514H59.144C59.1519 9.15903 59.1624 9.09698 59.1638 9.03627C59.173 8.74486 59.1861 8.45211 59.1848 8.1607C59.1809 6.80351 59.1717 5.44631 59.1638 4.09047C59.1638 4.01087 59.1493 3.93128 59.1401 3.83414C59.0031 3.84223 58.8794 3.85033 58.7372 3.85977V3.85842ZM64.4974 2.78859H59.8234C59.8168 2.93429 59.8115 3.07055 59.826 3.20816H64.4658C64.4763 3.0665 64.4869 2.93294 64.4974 2.78859ZM58.749 9.85922C58.7082 10.0225 58.6911 10.1776 58.7648 10.3368C58.9031 10.3368 59.0321 10.3462 59.1677 10.3301C59.1677 10.1641 59.173 10.0144 59.1651 9.86057H58.749V9.85922ZM65.1294 3.20681C65.2479 3.26617 65.365 3.28506 65.4862 3.24054C65.5151 3.22974 65.5546 3.19871 65.556 3.17578C65.5625 3.04896 65.5599 2.9208 65.5599 2.78319C65.4045 2.78454 65.2676 2.7724 65.1294 2.79129V3.20681ZM59.277 3.76264C59.3744 3.76938 59.4613 3.78287 59.5469 3.78018C59.6417 3.77748 59.6891 3.72621 59.6957 3.62773C59.7023 3.53464 59.6996 3.44155 59.6522 3.34981C59.5285 3.33902 59.4047 3.33632 59.277 3.35116V3.76264Z" fill="#68C8FE"/>
<path d="M68.234 2.70764H68.7448C68.7514 2.5417 68.7567 2.38656 68.7646 2.21387C68.8923 2.20578 69.0121 2.19229 69.1332 2.18959C70.0851 2.17475 71.0371 2.15451 71.989 2.15181C73.116 2.14777 74.2444 2.15721 75.3714 2.16396C75.4938 2.16396 75.6163 2.17745 75.7493 2.18419V2.7009H76.2733V4.39402H75.7664V4.92961H72.0456C72.0364 5.28037 72.043 5.619 72.0443 5.96842H75.2107V6.49996C75.3951 6.5175 75.5662 6.53504 75.7427 6.55123V7.66693H75.2344V8.19982H72.0509C72.039 8.54654 72.0377 8.87977 72.043 9.22649H76.2812V9.78772C76.455 9.8039 76.6209 9.78771 76.7933 9.79851V11.4943H76.3141C76.3022 11.6711 76.2917 11.8356 76.2798 12.0056H68.7606V11.5132C68.6421 11.5024 68.5355 11.493 68.417 11.4822V5.36941C68.3498 5.34378 68.2932 5.32355 68.2326 5.30061V2.70629L68.234 2.70764ZM69.2675 9.78772C69.2938 9.5813 69.2846 3.41997 69.2596 3.32418H68.8844C68.8778 3.41322 68.8659 3.49687 68.8646 3.58051C68.8554 3.94477 68.8436 4.30767 68.8422 4.67193C68.837 5.70129 68.8317 6.73066 68.8343 7.75867C68.8343 8.36576 68.8501 8.97151 68.8594 9.5786C68.8594 9.64741 68.8699 9.71756 68.8765 9.78772H69.2675ZM74.0587 2.76026C74.006 2.76026 73.9665 2.76026 73.9284 2.76026C73.1911 2.76026 72.4551 2.75756 71.7178 2.76296C71.012 2.767 70.3063 2.77914 69.5993 2.78859C69.5308 2.78859 69.4637 2.79803 69.3979 2.80343V3.2149C69.5888 3.24728 73.9323 3.25268 74.0574 3.2203V2.76161L74.0587 2.76026ZM75.1397 2.78454H74.7144C74.7104 2.93834 74.7065 3.08269 74.7157 3.2257H75.1397V2.78454ZM68.8633 10.407V10.867H69.2728V10.407H68.8633Z" fill="#FFED8E"/>
<path d="M2.23431 2.69955H2.72936V2.18419C2.82547 2.1734 2.9071 2.15991 2.98873 2.15856C3.17306 2.15451 3.35739 2.15721 3.54171 2.15721C5.39289 2.15856 7.24537 2.16126 9.09654 2.16261C9.30852 2.16261 9.51392 2.20038 9.73511 2.24355V2.68336C9.91022 2.69685 10.0708 2.70899 10.242 2.72248C10.2591 2.88707 10.2736 3.04222 10.2907 3.21086C10.4487 3.23379 10.6028 3.25538 10.7687 3.27966C10.7766 3.35791 10.791 3.43346 10.791 3.50766C10.8003 4.35759 10.8095 5.20752 10.8121 6.05611C10.8121 6.4433 10.8003 6.82914 10.7897 7.21633C10.7858 7.35529 10.7726 7.4929 10.7621 7.644C10.6067 7.66828 10.4566 7.69121 10.296 7.7155C10.2762 7.87334 10.2552 8.02849 10.2341 8.19443C10.1301 8.20522 10.0261 8.21332 9.92338 8.22546C9.77066 8.24435 9.74827 8.26863 9.73379 8.42647C9.72852 8.48044 9.72721 8.5344 9.72589 8.58837C9.72457 8.64233 9.72589 8.69494 9.72589 8.76645C9.54288 8.77454 9.36909 8.77049 9.19529 8.77184C9.02018 8.77184 8.84375 8.77184 8.66864 8.77184C8.49353 8.77184 8.3171 8.77184 8.14199 8.77184C7.97083 8.77184 7.79967 8.77184 7.62851 8.77184C7.4534 8.77184 7.27697 8.77184 7.10186 8.77184C6.92675 8.77184 6.75032 8.77184 6.57521 8.77184C6.4001 8.77184 6.22631 8.77184 6.03408 8.77184C6.01038 9.23458 6.02618 9.68248 6.01565 10.1304C6.00512 10.5742 6.01301 11.0194 6.01301 11.4781C5.83395 11.4943 5.66543 11.5092 5.49163 11.524C5.47847 11.6872 5.4653 11.841 5.45213 12.0016H2.77412C2.73726 11.8491 2.77807 11.6913 2.74779 11.5281C2.58585 11.5132 2.42654 11.4984 2.25011 11.4822C2.24616 11.3783 2.24089 11.2812 2.23958 11.184C2.22773 10.1236 2.21324 9.0619 2.20534 8.00151C2.19744 6.90064 2.19613 5.79843 2.19744 4.69756C2.19744 4.10396 2.21061 3.51036 2.21983 2.91675C2.21983 2.85065 2.23036 2.78319 2.23694 2.7009L2.23431 2.69955ZM3.28102 9.23324C3.28366 9.18467 3.28892 9.14554 3.28892 9.10642C3.29024 7.2595 3.29156 5.41259 3.29287 3.56567C3.29287 3.51171 3.29156 3.45774 3.28234 3.40513C3.27181 3.33632 3.23231 3.28776 3.16121 3.28506C3.09538 3.28236 3.03087 3.28506 2.96503 3.2891C2.82679 3.29855 2.82416 3.30125 2.82416 3.43885C2.82416 5.33029 2.82416 7.22308 2.82416 9.11451C2.82416 9.15229 2.83074 9.19141 2.83469 9.23324H3.28102ZM3.34817 2.79264C3.34422 2.93699 3.32842 3.0719 3.36529 3.20276C3.58253 3.22839 7.94713 3.21895 8.04456 3.19332V2.79264H3.34817ZM6.98073 5.95223C7.01101 5.80113 7.00443 5.05103 6.97152 4.95524H6.03671V5.95897C6.35665 5.93739 6.66869 6.02778 6.97942 5.95223H6.98073ZM9.09786 2.78454C8.95172 2.78454 8.82269 2.7778 8.69498 2.78859V3.23649C8.8319 3.24728 8.95962 3.25673 9.09786 3.26617V2.78319V2.78454ZM3.25601 10.3287V9.87136C3.11513 9.87136 2.9861 9.85922 2.84917 9.88215C2.85049 10.0386 2.84127 10.183 2.85444 10.3301H3.25601V10.3287Z" fill="#CA5EFE"/>
<path d="M37.9477 7.09222C37.766 7.11245 37.6054 7.12999 37.4342 7.14753C37.4184 7.30942 37.4026 7.46322 37.3855 7.63725C37.2262 7.65344 37.0682 7.66963 36.8931 7.68717V8.20387H35.8437C35.824 9.30474 35.8358 10.3908 35.8279 11.4903H35.3052C35.2987 11.5888 35.2921 11.6724 35.2868 11.7561C35.2815 11.8356 35.2776 11.9152 35.2736 12.0029H32.0426V11.5146H31.4883C31.4857 10.4123 31.4844 9.32767 31.4818 8.22816H30.4495C30.4364 8.03658 30.4245 7.85985 30.4113 7.66693C30.3482 7.66693 30.2889 7.66693 30.2297 7.66693C30.1678 7.66693 30.1059 7.67098 30.0453 7.66693C29.9202 7.65614 29.8755 7.59948 29.886 7.47131C29.8926 7.39037 29.9018 7.31077 29.9084 7.22982C29.9097 7.20824 29.9044 7.1853 29.9018 7.14618C29.786 7.13404 29.6714 7.1219 29.5595 7.10975C29.5239 6.92088 29.5147 2.95453 29.5503 2.73597C29.6477 2.72113 29.7504 2.70629 29.8702 2.68741C29.8808 2.52416 29.89 2.36092 29.9018 2.1788C29.9927 2.1707 30.0782 2.15721 30.1638 2.15721C30.5851 2.15451 31.0065 2.15586 31.4278 2.15721C31.7609 2.15721 32.0953 2.15721 32.4284 2.15856C32.5943 2.15856 32.6206 2.18554 32.6246 2.35148C32.6272 2.46211 32.6246 2.57408 32.6246 2.69955H33.1315C33.1381 2.76565 33.1473 2.81827 33.1486 2.86953C33.1591 3.34577 33.1697 3.822 33.1763 4.29823C33.1815 4.61257 33.1802 4.92826 33.1815 5.2426C33.1815 5.29117 33.1815 5.34108 33.1815 5.3856C33.2869 5.42068 33.9807 5.42743 34.1321 5.3937V2.70629H34.6667C34.6904 2.52551 34.6667 2.35553 34.6825 2.18959C34.7786 2.15991 37.2209 2.15181 37.3868 2.18284C37.4 2.34743 37.4131 2.51607 37.4276 2.69685C37.4777 2.69955 37.5251 2.70225 37.5711 2.7036C37.6014 2.7036 37.633 2.7036 37.6633 2.7036C37.8806 2.70899 37.9477 2.7751 37.9477 2.99635C37.949 3.55892 37.9477 4.12015 37.9477 4.68272C37.9477 5.42878 37.9477 6.17483 37.9477 6.92088C37.9477 6.97349 37.9477 7.02746 37.9477 7.09222ZM34.7746 3.30934C34.747 3.52655 34.7575 5.32355 34.7878 5.42338C34.9234 5.42473 35.0617 5.43147 35.2039 5.41933V3.30934H34.7746ZM30.3982 5.41528C30.4271 5.25744 30.4206 3.39568 30.3903 3.28641C30.2639 3.2972 30.1349 3.30799 30.0098 3.31878C29.9808 3.47933 29.9874 5.31275 30.015 5.41663H30.3982V5.41528ZM32.0084 2.78724H30.5048V3.20141C30.8169 3.27426 31.857 3.25133 32.0084 3.16903V2.78724ZM35.3224 3.19602C35.4645 3.22705 36.6851 3.22165 36.7864 3.18927C36.7851 3.05976 36.8009 2.9262 36.7759 2.79129H35.3224V3.19602ZM30.0045 6.05071V6.49726H30.4021V6.05071H30.0045Z" fill="#68C8FE"/>
<path d="M11.9523 2.70764C12.0813 2.7009 12.1893 2.6955 12.3104 2.68875V2.18284H15.5809V2.68875C15.7626 2.69955 15.9311 2.70899 16.1155 2.71978C16.1181 2.77105 16.1207 2.81962 16.1207 2.86684C16.126 4.02706 16.1313 5.18729 16.1365 6.34751C16.1392 7.08952 16.1405 7.83152 16.1418 8.57353C16.1418 8.614 16.1418 8.65312 16.1418 8.70844H18.2471C18.2629 8.88922 18.276 9.0565 18.2905 9.23054H18.7448C18.7737 9.33172 18.7816 11.2974 18.754 11.4943H18.2905C18.276 11.6697 18.2629 11.8343 18.2484 12.0056H12.3289V11.5186C12.1498 11.5065 11.9813 11.4957 11.7969 11.4835C11.7522 10.6403 11.7917 9.79716 11.7693 8.95127C11.8325 8.93239 11.8865 8.91755 11.9523 8.89866V2.70764ZM12.4355 3.29585C12.4315 3.366 12.4263 3.41862 12.425 3.47123C12.4158 4.13094 12.3986 4.792 12.4 5.45171C12.4026 6.59305 12.4171 7.73304 12.4276 8.87437C12.4276 8.9904 12.4381 9.10507 12.4447 9.22379H12.8279V3.32013C12.6975 3.31204 12.5751 3.30394 12.4355 3.2945V3.29585ZM14.4447 2.78859C13.9457 2.75621 13.4453 2.74137 12.9411 2.81152C12.9332 2.95588 12.9306 3.08674 12.9411 3.21895H14.4433V2.78859H14.4447ZM12.4289 10.3166H12.845V9.87541H12.4289V10.3166Z" fill="#FFED8E"/>
<path d="M42.7771 4.95254C43.0904 4.92556 43.3959 4.93905 43.7106 4.93501V9.21974H42.7771V4.95254Z" fill="#030202"/>
<path d="M39.5829 3.31474H39.9555C40.028 3.69653 40.0359 9.49361 39.9648 9.78367H39.5829V3.31474Z" fill="#080602"/>
<path d="M40.1083 3.22165V2.79129H44.7849C44.7849 2.85739 44.7876 2.92755 44.7876 2.99635C44.7876 3.06785 44.7876 3.13935 44.7876 3.20951C44.6901 3.23919 40.3361 3.24998 40.1083 3.22165Z" fill="#080602"/>
<path d="M45.4459 2.78589H45.8527V3.22165H45.4459V2.78589Z" fill="#080602"/>
<path d="M39.5869 10.8697V10.4177H39.9898V10.8697H39.5869Z" fill="#080602"/>
<path d="M20.8421 9.22379H20.4155V3.87866C20.5117 3.83279 20.6104 3.83414 20.7118 3.84763C20.7882 3.85842 20.829 3.90294 20.8369 3.98119C20.8421 4.03516 20.8487 4.08912 20.8487 4.14173C20.8487 5.79168 20.8487 7.44163 20.85 9.09158C20.85 9.1307 20.8461 9.17118 20.8435 9.22379H20.8421Z" fill="#080602"/>
<path d="M25.5951 2.79264C25.5991 2.82097 25.6057 2.84255 25.6057 2.86414C25.6057 2.97611 25.6057 3.08809 25.6057 3.2176C25.5504 3.22435 25.5003 3.23379 25.4503 3.23379C25.1909 3.23649 24.9329 3.23649 24.6735 3.23649C23.9099 3.23649 23.1462 3.23514 22.3826 3.23649C22.1719 3.23649 21.9613 3.25133 21.7519 3.25538C21.665 3.25673 21.5781 3.24863 21.482 3.24458V2.79129H25.5938L25.5951 2.79264Z" fill="#080602"/>
<path d="M24.5392 4.95794V5.97786C24.2351 5.98326 23.9362 5.98056 23.6281 5.97921V4.96199C23.7269 4.93096 24.3536 4.92556 24.5392 4.95659V4.95794Z" fill="#080602"/>
<path d="M20.825 10.2896C20.6894 10.3678 20.6196 10.3732 20.4116 10.3193V9.86057C20.5472 9.84573 20.6749 9.85517 20.8171 9.85382C20.8369 10.0049 20.825 10.1493 20.825 10.2896Z" fill="#080602"/>
<path d="M26.2706 2.78049H26.6879V3.22705C26.5589 3.24054 26.4259 3.23109 26.2811 3.23244C26.2561 3.08404 26.2706 2.93834 26.2719 2.78049H26.2706Z" fill="#080602"/>
<path d="M20.9698 3.35116H21.3003C21.3451 3.43346 21.3609 3.5198 21.3583 3.61019C21.3556 3.71542 21.3135 3.76803 21.2108 3.77883C21.1344 3.78692 21.0554 3.78018 20.9646 3.78018C20.9619 3.63043 20.9527 3.49147 20.9712 3.35116H20.9698Z" fill="#080602"/>
<path d="M53.2929 9.23593H52.3687C52.3331 9.11856 52.3213 5.18999 52.3581 4.96873H53.2837C53.3114 5.06722 53.3219 9.00794 53.2916 9.23593H53.2929Z" fill="#030202"/>
<path d="M49.1627 3.85303C49.2667 3.85303 49.3496 3.84898 49.4326 3.85303C49.5511 3.85977 49.5801 3.88945 49.5866 4.00682C49.5893 4.06079 49.5893 4.11475 49.5893 4.16872C49.5893 5.80383 49.5893 7.43893 49.5893 9.07539C49.5893 9.11991 49.5893 9.16443 49.5893 9.2184H49.1653C49.1192 7.43489 49.1298 5.65408 49.1653 3.85168L49.1627 3.85303Z" fill="#030202"/>
<path d="M54.3673 2.79264V3.19062C54.3107 3.19737 54.2593 3.20816 54.208 3.20816C52.9848 3.21625 51.7617 3.22435 50.5386 3.23109C50.4438 3.23109 50.3476 3.21895 50.2463 3.21086V2.79264H54.3686H54.3673Z" fill="#080602"/>
<path d="M50.0935 3.77343C49.9606 3.78287 49.8329 3.79097 49.692 3.80041C49.6828 3.64527 49.6749 3.50496 49.6656 3.34981C49.8118 3.33497 49.9487 3.34442 50.0935 3.34307V3.77343Z" fill="#080602"/>
<path d="M55.4311 3.23109H55.0348V2.79129H55.4245C55.4403 2.93159 55.4298 3.07325 55.4311 3.23109Z" fill="#080602"/>
<path d="M49.5708 10.3274H49.1917V9.87676H49.5708V10.3274Z" fill="#030202"/>
<path d="M58.7372 3.85842C58.878 3.84898 59.0031 3.84089 59.1401 3.83279C59.1493 3.92993 59.1638 4.00952 59.1638 4.08912C59.1717 5.44631 59.1809 6.80351 59.1848 8.15935C59.1848 8.45076 59.173 8.74351 59.1638 9.03492C59.1624 9.09698 59.1506 9.15769 59.144 9.22379H58.7556C58.7464 9.10372 58.7345 8.98905 58.7293 8.87437C58.724 8.7624 58.7227 8.65042 58.7227 8.5371C58.7161 7.35529 58.7069 6.17348 58.7043 4.99167C58.7043 4.66384 58.7174 4.33601 58.7253 4.00817C58.7253 3.96365 58.7319 3.92048 58.7372 3.85707L58.7372 3.85842Z" fill="#080602"/>
<path d="M64.4974 2.78859C64.4869 2.93294 64.4763 3.06515 64.4658 3.20816H59.826C59.8115 3.07055 59.8168 2.93564 59.8234 2.78859H64.4974Z" fill="#030202"/>
<path d="M58.749 9.85922H59.1651C59.173 10.013 59.1677 10.1641 59.1677 10.3287C59.0321 10.3449 58.9031 10.3368 58.7648 10.3355C58.6924 10.1763 58.7095 10.0211 58.749 9.85787V9.85922Z" fill="#080602"/>
<path d="M65.1294 3.20681V2.79264C65.2676 2.7724 65.4045 2.78589 65.5599 2.78454C65.5599 2.9208 65.5639 3.04896 65.556 3.17713C65.556 3.20006 65.5138 3.23109 65.4862 3.24189C65.365 3.28776 65.2479 3.26752 65.1294 3.20816V3.20681Z" fill="#080602"/>
<path d="M59.277 3.76264V3.35116C59.4047 3.33632 59.5285 3.33902 59.6522 3.34981C59.6983 3.44155 59.7023 3.53464 59.6957 3.62773C59.6878 3.72486 59.6404 3.77748 59.5469 3.78018C59.4613 3.78287 59.3757 3.76938 59.277 3.76264Z" fill="#080602"/>
<path d="M69.2675 9.78772H68.8765C68.8699 9.71756 68.8607 9.64876 68.8594 9.5786C68.8501 8.97151 68.8357 8.36576 68.8343 7.75867C68.8317 6.72931 68.837 5.69994 68.8422 4.67193C68.8436 4.30767 68.8554 3.94477 68.8646 3.58051C68.8673 3.49687 68.8778 3.41187 68.8844 3.32418H69.2596C69.2846 3.41997 69.2938 9.58265 69.2675 9.78772Z" fill="#080602"/>
<path d="M74.0587 2.76026V3.21895C73.9323 3.25133 69.5901 3.24728 69.3992 3.21355V2.80208C69.4637 2.79668 69.5322 2.78859 69.6006 2.78724C70.3063 2.7778 71.012 2.76565 71.7191 2.76161C72.4564 2.75756 73.1924 2.76026 73.9297 2.75891C73.9679 2.75891 74.0074 2.75891 74.06 2.75891L74.0587 2.76026Z" fill="#080602"/>
<path d="M75.1397 2.78454V3.2257H74.7157C74.7052 3.08269 74.7104 2.93834 74.7144 2.78454H75.1397Z" fill="#080602"/>
<path d="M68.8633 10.407H69.2728V10.867H68.8633V10.407Z" fill="#080602"/>
<path d="M3.28102 9.23324H2.83469C2.83074 9.19141 2.82416 9.15229 2.82416 9.11451C2.82416 7.22308 2.82416 5.33029 2.82416 3.43885C2.82416 3.30125 2.82679 3.2999 2.96503 3.2891C3.03087 3.28506 3.09538 3.28236 3.16121 3.28506C3.23363 3.28776 3.27181 3.33632 3.28234 3.40513C3.29024 3.45774 3.29287 3.51305 3.29287 3.56567C3.29287 5.41259 3.29024 7.2595 3.28892 9.10642C3.28892 9.14554 3.28497 9.18467 3.28102 9.23324Z" fill="#080602"/>
<path d="M3.34817 2.79264H8.04456V3.19332C7.94582 3.21895 3.58121 3.22974 3.36529 3.20276C3.32842 3.0719 3.34422 2.93564 3.34817 2.79264Z" fill="#030202"/>
<path d="M6.98073 5.95223C6.67001 6.02778 6.35797 5.93739 6.03803 5.95897V4.95524H6.97283C7.00575 5.05103 7.01233 5.80113 6.98205 5.95223H6.98073Z" fill="#080602"/>
<path d="M9.09786 2.78454V3.26752C8.95962 3.25673 8.8319 3.24728 8.69498 3.23784V2.78994C8.824 2.7778 8.95172 2.78454 9.09786 2.78589V2.78454Z" fill="#080602"/>
<path d="M3.25601 10.3287L2.85444 10.3287C2.84127 10.183 2.85049 10.0373 2.84917 9.8808C2.98742 9.85787 3.11645 9.87136 3.25601 9.87001L3.25601 10.3287Z" fill="#080602"/>
<path d="M34.7746 3.30934L35.2025 3.30934V5.41933C35.0617 5.43147 34.9234 5.42473 34.7865 5.42338C34.7562 5.32489 34.7457 3.52789 34.7733 3.30934L34.7746 3.30934Z" fill="#030202"/>
<path d="M30.3982 5.41528L30.015 5.41528C29.9861 5.3114 29.9808 3.47933 30.0098 3.31744C30.1349 3.30664 30.2639 3.29585 30.3903 3.28506C30.4206 3.39433 30.4271 5.25609 30.3982 5.41394L30.3982 5.41528Z" fill="#030202"/>
<path d="M32.0084 2.78724V3.16769C31.857 3.24998 30.8169 3.27426 30.5048 3.20006V2.78589H32.0084V2.78724Z" fill="#080602"/>
<path d="M35.3224 3.19602V2.79129H36.7759C36.8009 2.9262 36.7851 3.05841 36.7864 3.18927C36.6837 3.22165 35.4632 3.22705 35.3224 3.19602Z" fill="#030202"/>
<path d="M30.0045 6.05071H30.4021V6.49726H30.0045V6.05071Z" fill="#080602"/>
<path d="M12.4355 3.29585C12.5751 3.30529 12.6975 3.31204 12.8279 3.32148V9.22514H12.4447C12.4381 9.10642 12.4289 8.9904 12.4276 8.87572C12.4171 7.73439 12.4026 6.5944 12.4 5.45306C12.3986 4.79335 12.4158 4.13229 12.425 3.47258C12.425 3.41997 12.4316 3.36735 12.4355 3.2972L12.4355 3.29585Z" fill="#080602"/>
<path d="M14.4447 2.78859V3.21895H12.9424C12.9306 3.08674 12.9332 2.95588 12.9424 2.81152C13.4467 2.74137 13.947 2.75621 14.446 2.78859H14.4447Z" fill="#080602"/>
<path d="M12.4289 10.3166V9.87541H12.845V10.3166H12.4289Z" fill="#080602"/>
</svg>
